<svg xmlns="http://www.w3.org/2000/svg" width="33.921" height="39.453" viewBox="0 0 33.921 39.453">
    <defs>
        <style>
            .cls-1{fill:#dbe3f8;stroke:#dbe3f8;stroke-width:.5px}.cls-2{fill:#5f5f5f;stroke:#fff;stroke-width:.4px}
        </style>
    </defs>
    <g id="그룹_3459" transform="translate(-291.746 -423.577)">
        <g id="그룹_3445" transform="translate(5838.237 -20632.523)">
            <path id="패스_2678" d="M796.981 525.711a3.046 3.046 0 0 0-4.007 1.739 6.736 6.736 0 0 0-.129 2.263v7.109c0 1.336.376 2.625 1.753 3.165a2.975 2.975 0 0 0 4.124-2.432.974.974 0 0 0 .012-.145 1 1 0 0 0 0-.1v-5.748c0-1.956.544-4.95-1.753-5.851zm-2.5 11.639v-8.97a1.329 1.329 0 0 1 2.6-.3 8.284 8.284 0 0 1 .016 2.012v7.314a1.316 1.316 0 0 1-2.616-.056z" class="cls-1" transform="translate(-6325.32 20555.076)"/>
            <path id="패스_2679" d="M769.135 457.854a.777.777 0 0 0-.436-.355l-.053-.021-3.631-1.213a.82.82 0 0 0-1.006.571 13 13 0 0 0-.284 3.915.828.828 0 0 0 .6.789 13.2 13.2 0 0 0 1.745.164c1.376.107 2.752.206 4.128.305a.824.824 0 0 0 .706-1.231zm-4.409 2.1c-.063-.008-.056-.01 0 0zm.6.053a11.7 11.7 0 0 1 .1-1.884l2.458.822.8 1.315-2.168-.16q-.597-.043-1.188-.092z" class="cls-1" transform="translate(-6301.574 20611.541)"/>
            <path id="패스_2680" d="M819.734 456.185l-3.772 1.232c-.585.191-.93 1.089-1.225 1.571l-1.062 1.739a.824.824 0 0 0 .706 1.231q2.072-.136 4.143-.3a13.877 13.877 0 0 0 1.9-.185.828.828 0 0 0 .6-.789c.023-.351.032-.7.03-1.051a12.382 12.382 0 0 0-.319-2.879.82.82 0 0 0-1.001-.569zm-1.428 3.856q-1.2.1-2.4.177l.811-1.328 2.608-.852a12.3 12.3 0 0 1 .1 1.6v.314q-.563.048-1.119.089z" class="cls-1" transform="translate(-6342.241 20611.605)"/>
            <path id="패스_2681" d="M745.1 412.171l1.43-1.7h3.822a.825.825 0 0 0 .789-.6l.709-2.592a.826.826 0 0 0-.788-1.035h-4.2a.825.825 0 0 0-.789.6l-.664 2.427-.9 1.07c-.041-.1-.082-.2-.126-.3a.828.828 0 0 0-1.119-.293l-1.6.718 1.259-1.24a.811.811 0 0 0 .128-.991c-1.808-2.355-4.858-3.181-7.715-3.281-.024 0-.047-.007-.071-.007h-.18c-.025 0-.048.005-.072.007a12.246 12.246 0 0 0-5.35 1.3.726.726 0 0 0-.473.276 7.193 7.193 0 0 0-1.892 1.7.811.811 0 0 0 .128.991l1.259 1.24-1.6-.718a.828.828 0 0 0-1.119.293c-.044.1-.084.2-.125.3l-.9-1.071-.664-2.427a.825.825 0 0 0-.788-.6h-4.2a.826.826 0 0 0-.789 1.035l.709 2.592a.825.825 0 0 0 .789.6h3.822l1.434 1.7c-.105.437-.189.879-.256 1.324l-3.037.776a.778.778 0 0 0-.851-.3.82.82 0 0 0-.571 1.006l.415 1.04a.836.836 0 0 0 1.006.571.868.868 0 0 0 .613-.788l2.243-.573c-.047.734-.063 1.473-.064 2.214a10.288 10.288 0 0 0 .215 2.824 2.4 2.4 0 0 0 1.472 1.316q-.2.231-.418.454c-.076.079-.316.211-.271.227a.665.665 0 0 0-.521.916c.093 1.118.9 1.729 1.4 2.678a4.215 4.215 0 0 1 .2 2.482 11.106 11.106 0 0 0-.124 3.4 6.8 6.8 0 0 0 4 5.216.822.822 0 0 0 1.036-.789v-9.46h6.86v9.46a.822.822 0 0 0 1.035.789 6.8 6.8 0 0 0 3.973-5.025 9.253 9.253 0 0 0 0-3.06 5.4 5.4 0 0 1 .055-2.9 13.562 13.562 0 0 1 1.075-1.669.913.913 0 0 0 .377-1.036c.009-.072.015-.147.017-.224a.815.815 0 0 0-.6-.789c.224.048-.108-.129-.2-.221-.149-.148-.288-.3-.426-.462a2.4 2.4 0 0 0 1.542-1.554 16.641 16.641 0 0 0 .15-3.541c-.006-.416-.021-.833-.047-1.247l2.229.57a.868.868 0 0 0 .613.788.836.836 0 0 0 1.006-.571l.415-1.04a.818.818 0 0 0-.571-1.006.778.778 0 0 0-.851.3l-3.025-.773q-.104-.658-.268-1.317zm2.125-3.336l.261-.956h2.5l-.262.956zm-24.108 0h-2.5l-.261-.956h2.5l.264.957zm13.039 5.963l-.02.041-.438.389-.527.468-.42-.373-.606-.538c-.025-.022-.043-.038-.06-.051l-.785-1.834a.751.751 0 0 0-.122-.282l-.123-.286-2.123-4.924a11.6 11.6 0 0 1 4.152-.823h.181a11.6 11.6 0 0 1 4.146.821l-2.1 4.772zm-.03.06c-.031.054-.044.051 0 0zm-6.606-6.614l.564 1.309-.965-.951a4.994 4.994 0 0 1 .404-.358zm11.7.358l-1 .983.592-1.345a5.016 5.016 0 0 1 .415.36zm-12.978 22.324c-.136-1.843.677-3.646-.017-5.453a16.367 16.367 0 0 0-1.171-1.756l3.048-.439v11.416c-.074-.063-.146-.127-.218-.194a5.355 5.355 0 0 1-1.635-3.574zm6.855-8.369a1.52 1.52 0 0 1 .207.028l1.03.213.813.168h-4.884zm-.053 0c-.08.005-.068 0 0 0zm-3.307 2.047h6.86v.477h-6.86zm10.364 6.113a5.37 5.37 0 0 1-1.562 3.7c-.1.1-.2.191-.307.28V423.6l2.729.564a5.679 5.679 0 0 0-.771 1.11c-.763 1.791-.048 3.595-.081 5.441zm1.825-11.777a4.065 4.065 0 0 1-.11.837c.041-.219-.2.073-.356.164a9.012 9.012 0 0 1-1.123.522.88.88 0 0 0-.3 1.44c.112.145.234.31.365.484l-2.423-.5-3.211-.664a8.372 8.372 0 0 0-1.591-.313 10.77 10.77 0 0 0-1.477.211l-3.175.458-2.226.321a.881.881 0 0 0-.3-1.436 10.739 10.739 0 0 1-1.338-.646.941.941 0 0 0-.154-.075v-.017a2.268 2.268 0 0 1-.064-.4 21.506 21.506 0 0 1-.058-2.285 23.659 23.659 0 0 1 .2-3.28c.684.725 1.781-.41 1.119-1.2l-.667-.793c.024-.074.048-.148.074-.222l4.754 2.127.825 1.913c.121.282.46.5.68.691l1.229 1.092a.837.837 0 0 0 1.156 0l1.105-.982c.222-.2.559-.411.684-.693l.875-1.99 4.824-2.158c.026.074.049.148.074.222l-.668.794c-.663.788.437 1.923 1.12 1.2a21.149 21.149 0 0 1 .194 2.73c.001.808.01 1.629-.03 2.446z" class="cls-1" transform="translate(-6264.705 20653.352)"/>
        </g>
        <g id="그룹_3439" transform="translate(5838.237 -20634.523)">
            <path id="패스_2678-2" d="M796.981 525.711a3.046 3.046 0 0 0-4.007 1.739 6.736 6.736 0 0 0-.129 2.263v7.109c0 1.336.376 2.625 1.753 3.165a2.975 2.975 0 0 0 4.124-2.432.974.974 0 0 0 .012-.145 1 1 0 0 0 0-.1v-5.748c0-1.956.544-4.95-1.753-5.851zm-2.5 11.639v-8.97a1.329 1.329 0 0 1 2.6-.3 8.284 8.284 0 0 1 .016 2.012v7.314a1.316 1.316 0 0 1-2.616-.056z" class="cls-2" transform="translate(-6325.32 20555.076)"/>
            <path id="패스_2679-2" d="M769.135 457.854a.777.777 0 0 0-.436-.355l-.053-.021-3.631-1.213a.82.82 0 0 0-1.006.571 13 13 0 0 0-.284 3.915.828.828 0 0 0 .6.789 13.2 13.2 0 0 0 1.745.164c1.376.107 2.752.206 4.128.305a.824.824 0 0 0 .706-1.231zm-4.409 2.1c-.063-.008-.056-.01 0 0zm.6.053a11.7 11.7 0 0 1 .1-1.884l2.458.822.8 1.315-2.168-.16q-.597-.043-1.188-.092z" class="cls-2" transform="translate(-6301.574 20611.541)"/>
            <path id="패스_2680-2" d="M819.734 456.185l-3.772 1.232c-.585.191-.93 1.089-1.225 1.571l-1.062 1.739a.824.824 0 0 0 .706 1.231q2.072-.136 4.143-.3a13.877 13.877 0 0 0 1.9-.185.828.828 0 0 0 .6-.789c.023-.351.032-.7.03-1.051a12.382 12.382 0 0 0-.319-2.879.82.82 0 0 0-1.001-.569zm-1.428 3.856q-1.2.1-2.4.177l.811-1.328 2.608-.852a12.3 12.3 0 0 1 .1 1.6v.314q-.563.048-1.119.089z" class="cls-2" transform="translate(-6342.241 20611.605)"/>
            <path id="패스_2681-2" d="M745.1 412.171l1.43-1.7h3.822a.825.825 0 0 0 .789-.6l.709-2.592a.826.826 0 0 0-.788-1.035h-4.2a.825.825 0 0 0-.789.6l-.664 2.427-.9 1.07c-.041-.1-.082-.2-.126-.3a.828.828 0 0 0-1.119-.293l-1.6.718 1.259-1.24a.811.811 0 0 0 .128-.991c-1.808-2.355-4.858-3.181-7.715-3.281-.024 0-.047-.007-.071-.007h-.18c-.025 0-.048.005-.072.007a12.246 12.246 0 0 0-5.35 1.3.726.726 0 0 0-.473.276 7.193 7.193 0 0 0-1.892 1.7.811.811 0 0 0 .128.991l1.259 1.24-1.6-.718a.828.828 0 0 0-1.119.293c-.044.1-.084.2-.125.3l-.9-1.071-.664-2.427a.825.825 0 0 0-.788-.6h-4.2a.826.826 0 0 0-.789 1.035l.709 2.592a.825.825 0 0 0 .789.6h3.822l1.434 1.7c-.105.437-.189.879-.256 1.324l-3.037.776a.778.778 0 0 0-.851-.3.82.82 0 0 0-.571 1.006l.415 1.04a.836.836 0 0 0 1.006.571.868.868 0 0 0 .613-.788l2.243-.573c-.047.734-.063 1.473-.064 2.214a10.288 10.288 0 0 0 .215 2.824 2.4 2.4 0 0 0 1.472 1.316q-.2.231-.418.454c-.076.079-.316.211-.271.227a.665.665 0 0 0-.521.916c.093 1.118.9 1.729 1.4 2.678a4.215 4.215 0 0 1 .2 2.482 11.106 11.106 0 0 0-.124 3.4 6.8 6.8 0 0 0 4 5.216.822.822 0 0 0 1.036-.789v-9.46h6.86v9.46a.822.822 0 0 0 1.035.789 6.8 6.8 0 0 0 3.973-5.025 9.253 9.253 0 0 0 0-3.06 5.4 5.4 0 0 1 .055-2.9 13.562 13.562 0 0 1 1.075-1.669.913.913 0 0 0 .377-1.036c.009-.072.015-.147.017-.224a.815.815 0 0 0-.6-.789c.224.048-.108-.129-.2-.221-.149-.148-.288-.3-.426-.462a2.4 2.4 0 0 0 1.542-1.554 16.641 16.641 0 0 0 .15-3.541c-.006-.416-.021-.833-.047-1.247l2.229.57a.868.868 0 0 0 .613.788.836.836 0 0 0 1.006-.571l.415-1.04a.818.818 0 0 0-.571-1.006.778.778 0 0 0-.851.3l-3.025-.773q-.104-.658-.268-1.317zm2.125-3.336l.261-.956h2.5l-.262.956zm-24.108 0h-2.5l-.261-.956h2.5l.264.957zm13.039 5.963l-.02.041-.438.389-.527.468-.42-.373-.606-.538c-.025-.022-.043-.038-.06-.051l-.785-1.834a.751.751 0 0 0-.122-.282l-.123-.286-2.123-4.924a11.6 11.6 0 0 1 4.152-.823h.181a11.6 11.6 0 0 1 4.146.821l-2.1 4.772zm-.03.06c-.031.054-.044.051 0 0zm-6.606-6.614l.564 1.309-.965-.951a4.994 4.994 0 0 1 .404-.358zm11.7.358l-1 .983.592-1.345a5.016 5.016 0 0 1 .415.36zm-12.978 22.324c-.136-1.843.677-3.646-.017-5.453a16.367 16.367 0 0 0-1.171-1.756l3.048-.439v11.416c-.074-.063-.146-.127-.218-.194a5.355 5.355 0 0 1-1.635-3.574zm6.855-8.369a1.52 1.52 0 0 1 .207.028l1.03.213.813.168h-4.884zm-.053 0c-.08.005-.068 0 0 0zm-3.307 2.047h6.86v.477h-6.86zm10.364 6.113a5.37 5.37 0 0 1-1.562 3.7c-.1.1-.2.191-.307.28V423.6l2.729.564a5.679 5.679 0 0 0-.771 1.11c-.763 1.791-.048 3.595-.081 5.441zm1.825-11.777a4.065 4.065 0 0 1-.11.837c.041-.219-.2.073-.356.164a9.012 9.012 0 0 1-1.123.522.88.88 0 0 0-.3 1.44c.112.145.234.31.365.484l-2.423-.5-3.211-.664a8.372 8.372 0 0 0-1.591-.313 10.77 10.77 0 0 0-1.477.211l-3.175.458-2.226.321a.881.881 0 0 0-.3-1.436 10.739 10.739 0 0 1-1.338-.646.941.941 0 0 0-.154-.075v-.017a2.268 2.268 0 0 1-.064-.4 21.506 21.506 0 0 1-.058-2.285 23.659 23.659 0 0 1 .2-3.28c.684.725 1.781-.41 1.119-1.2l-.667-.793c.024-.074.048-.148.074-.222l4.754 2.127.825 1.913c.121.282.46.5.68.691l1.229 1.092a.837.837 0 0 0 1.156 0l1.105-.982c.222-.2.559-.411.684-.693l.875-1.99 4.824-2.158c.026.074.049.148.074.222l-.668.794c-.663.788.437 1.923 1.12 1.2a21.149 21.149 0 0 1 .194 2.73c.001.808.01 1.629-.03 2.446z" class="cls-2" transform="translate(-6264.705 20653.352)"/>
        </g>
    </g>
</svg>
