<svg xmlns="http://www.w3.org/2000/svg" width="26.097" height="25.459" viewBox="0 0 26.097 25.459">
    <defs>
        <style>
            .cls-1{fill:#dbe3f8;stroke:#dbe3f8;stroke-width:.5px}.cls-2{fill:#5f5f5f;stroke:#fff;stroke-width:.1px}
        </style>
    </defs>
    <g id="그룹_3460" transform="translate(-213.75 -430.641)">
        <g id="그룹_3444" transform="translate(214 432.691)">
            <path id="패스_2776" d="M-135.232 163.438h-1.219v-1.219A1.22 1.22 0 0 0-137.67 161h-2.438a1.22 1.22 0 0 0-1.219 1.219v1.219h-9.751v-1.219A1.22 1.22 0 0 0-152.3 161h-2.438a1.22 1.22 0 0 0-1.219 1.219v1.219h-1.219a1.831 1.831 0 0 0-1.824 1.828v17.064a1.831 1.831 0 0 0 1.828 1.828h21.94a1.831 1.831 0 0 0 1.828-1.828v-17.064a1.831 1.831 0 0 0-1.828-1.828zm-22.549 4.266h23.159v12.189h-23.159zm17.674-5.485h2.438v1.219h-2.438zm-14.627 0h2.438v1.219h-2.438zm-2.438 2.438h21.94a.61.61 0 0 1 .609.609v1.219h-23.159v-1.219a.61.61 0 0 1 .61-.609zm21.94 18.283h-21.94a.61.61 0 0 1-.609-.609v-1.219h23.159v1.219a.61.61 0 0 1-.61.609z" class="cls-1" transform="translate(159 -161)"/>
            <path id="패스_2777" d="M-125.953 181h-2.438a.609.609 0 0 0-.609.609.609.609 0 0 0 .609.609h2.438a.609.609 0 0 0 .609-.609.609.609 0 0 0-.609-.609z" class="cls-1" transform="translate(147.283 -168.811)"/>
            <path id="패스_2778" d="M-149.953 180.219h-.609v-.609a.609.609 0 0 0-.609-.609.609.609 0 0 0-.609.609v.609h-.609a.609.609 0 0 0-.609.609.609.609 0 0 0 .609.609h.609v.609a.609.609 0 0 0 .609.609.609.609 0 0 0 .609-.609v-.609h.609a.609.609 0 0 0 .609-.609.609.609 0 0 0-.609-.609z" class="cls-1" transform="translate(156.657 -168.03)"/>
            <path id="패스_2779" d="M-136.6 175.615l-4.266-.609a.608.608 0 0 0-.574.238l-1.828 2.438a.609.609 0 0 0 .057.8l.908.908-1.632 3.264a.609.609 0 0 0 .1.693.609.609 0 0 0 .688.137l5.485-2.438a.61.61 0 0 0 .183-.988l-.833-.833 2.1-2.621a.61.61 0 0 0-.388-.989zm-3 3.27a.61.61 0 0 0 .045.812l.591.592-3.122 1.387 1.069-2.137a.61.61 0 0 0-.115-.7l-.845-.845 1.3-1.727 2.853.408z" class="cls-1" transform="translate(153.142 -166.468)"/>
        </g>
        <g id="그룹_3412" transform="translate(214 430.691)">
            <path id="패스_2776-2" d="M-135.232 163.438h-1.219v-1.219A1.22 1.22 0 0 0-137.67 161h-2.438a1.22 1.22 0 0 0-1.219 1.219v1.219h-9.751v-1.219A1.22 1.22 0 0 0-152.3 161h-2.438a1.22 1.22 0 0 0-1.219 1.219v1.219h-1.219a1.831 1.831 0 0 0-1.824 1.828v17.064a1.831 1.831 0 0 0 1.828 1.828h21.94a1.831 1.831 0 0 0 1.828-1.828v-17.064a1.831 1.831 0 0 0-1.828-1.828zm-22.549 4.266h23.159v12.189h-23.159zm17.674-5.485h2.438v1.219h-2.438zm-14.627 0h2.438v1.219h-2.438zm-2.438 2.438h21.94a.61.61 0 0 1 .609.609v1.219h-23.159v-1.219a.61.61 0 0 1 .61-.609zm21.94 18.283h-21.94a.61.61 0 0 1-.609-.609v-1.219h23.159v1.219a.61.61 0 0 1-.61.609z" class="cls-2" transform="translate(159 -161)"/>
            <path id="패스_2777-2" d="M-125.953 181h-2.438a.609.609 0 0 0-.609.609.609.609 0 0 0 .609.609h2.438a.609.609 0 0 0 .609-.609.609.609 0 0 0-.609-.609z" class="cls-2" transform="translate(147.283 -168.811)"/>
            <path id="패스_2778-2" d="M-149.953 180.219h-.609v-.609a.609.609 0 0 0-.609-.609.609.609 0 0 0-.609.609v.609h-.609a.609.609 0 0 0-.609.609.609.609 0 0 0 .609.609h.609v.609a.609.609 0 0 0 .609.609.609.609 0 0 0 .609-.609v-.609h.609a.609.609 0 0 0 .609-.609.609.609 0 0 0-.609-.609z" class="cls-2" transform="translate(156.657 -168.03)"/>
            <path id="패스_2779-2" d="M-136.6 175.615l-4.266-.609a.608.608 0 0 0-.574.238l-1.828 2.438a.609.609 0 0 0 .057.8l.908.908-1.632 3.264a.609.609 0 0 0 .1.693.609.609 0 0 0 .688.137l5.485-2.438a.61.61 0 0 0 .183-.988l-.833-.833 2.1-2.621a.61.61 0 0 0-.388-.989zm-3 3.27a.61.61 0 0 0 .045.812l.591.592-3.122 1.387 1.069-2.137a.61.61 0 0 0-.115-.7l-.845-.845 1.3-1.727 2.853.408z" class="cls-2" transform="translate(153.142 -166.468)"/>
        </g>
    </g>
</svg>
