<svg xmlns="http://www.w3.org/2000/svg" width="33.921" height="39.453" viewBox="0 0 33.921 39.453">
    <defs>
        <style>
            .cls-1{fill:#dbe3f8;stroke:#dbe3f8;stroke-width:.5px}.cls-2{fill:#5f5f5f;stroke:#fff;stroke-width:.4px}
        </style>
    </defs>
    <g id="그룹_3461" transform="translate(-122.746 -423.577)">
        <g id="그룹_3443" transform="translate(5789.245 -20632.523)">
            <g id="그룹_3433" transform="translate(-5666.245 21058.301)">
                <path id="패스_2672" d="M157.083 459.323a.828.828 0 0 0-1.035.789 6.439 6.439 0 0 0 .029 2.516.994.994 0 0 0 .045.11c.011.028.023.056.037.085a3.78 3.78 0 0 0 2.778 1.657c.816.154 2.478.259 2.478-.984 0-2.086-2.623-3.596-4.332-4.173zm.549 2.776a2.753 2.753 0 0 1-.065-.812 5.069 5.069 0 0 1 1.9 1.559l.047.077-.146-.021a2.618 2.618 0 0 1-1.736-.802z" class="cls-1" transform="translate(-147.833 -449.249)"/>
                <path id="패스_2673" d="M189.813 525.711a3.045 3.045 0 0 0-4.007 1.739 6.738 6.738 0 0 0-.129 2.263v7.109c0 1.336.376 2.625 1.753 3.165a2.975 2.975 0 0 0 4.124-2.432.95.95 0 0 0 .012-.145.908.908 0 0 0 0-.1v-5.748c-.001-1.956.544-4.95-1.753-5.851zm-2.5 11.639v-8.97a1.329 1.329 0 0 1 2.6-.3 8.271 8.271 0 0 1 .016 2.012v7.314a1.316 1.316 0 0 1-2.616-.056z" class="cls-1" transform="translate(-172.056 -503.225)"/>
                <path id="패스_2674" d="M221.918 459.323c-1.827.615-3.9 1.936-4.3 3.956-.265 1.345 1.441 1.363 2.3 1.224a3.851 3.851 0 0 0 2.922-1.68.868.868 0 0 0 .037-.085.9.9 0 0 0 .045-.11 6.44 6.44 0 0 0 .03-2.516.829.829 0 0 0-1.034-.789zm-2.142 3.551c-.085.018-.188.035-.292.049l.046-.077a4.639 4.639 0 0 1 1.9-1.564 2.762 2.762 0 0 1-.066.818 2.517 2.517 0 0 1-1.588.774z" class="cls-1" transform="translate(-198.099 -449.249)"/>
                <path id="패스_2675" d="M119.368 410.043c-.022.049-.041.1-.062.147l-.773-.919-.664-2.427a.824.824 0 0 0-.788-.6h-4.2a.826.826 0 0 0-.788 1.035l.709 2.592a.825.825 0 0 0 .789.6h3.822L118.7 412a15.393 15.393 0 0 0-.308 1.55l-2.837.725a.778.778 0 0 0-.851-.3.819.819 0 0 0-.571 1.006l.415 1.04a.836.836 0 0 0 1.006.571.868.868 0 0 0 .613-.788l2.049-.524c-.045.718-.06 1.441-.061 2.165a10.287 10.287 0 0 0 .215 2.824c.239.826 1.266 1.253 2.1 1.571l.122.682a4.7 4.7 0 0 0-1.151-.292.819.819 0 0 0-.818.818 21.418 21.418 0 0 0 2.478 10.105 13.557 13.557 0 0 0 2.654 3.6.826.826 0 0 0 1.4-.579v-8.3l3.48-1.155.4.132 1.534.509 1.549.514v8.3a.825.825 0 0 0 1.4.579 13.742 13.742 0 0 0 2.575-3.452 21.09 21.09 0 0 0 2.558-10.25.819.819 0 0 0-.818-.818 4.7 4.7 0 0 0-1.15.292l.123-.686c.919-.36 1.94-.808 2.16-1.813a16.672 16.672 0 0 0 .15-3.541q-.009-.637-.049-1.271l2.322.594a.868.868 0 0 0 .613.788.836.836 0 0 0 1.006-.571l.415-1.04a.819.819 0 0 0-.571-1.006.778.778 0 0 0-.851.3l-3.121-.8q-.1-.616-.239-1.222l1.5-1.784h3.822a.825.825 0 0 0 .788-.6l.709-2.592a.826.826 0 0 0-.788-1.035h-4.2a.825.825 0 0 0-.788.6l-.664 2.427-.961 1.143q-.075-.186-.156-.371a.822.822 0 0 0-1.119-.293l-1.321.713.976-1.235a.825.825 0 0 0 .128-.991c-1.808-2.354-4.858-3.181-7.715-3.281-.024 0-.047-.007-.071-.007h-.281c-.025 0-.048.005-.072.007a12.208 12.208 0 0 0-5.381 1.318.718.718 0 0 0-.324.183 7.231 7.231 0 0 0-2.01 1.78.826.826 0 0 0 .128.991l.976 1.235-1.32-.713a.822.822 0 0 0-1.129.291zm-2.65-1.208h-2.5l-.261-.956h2.5zm24.108 0l.261-.956h2.5l-.262.956zm-12.3 17.852c-.1-.01-.13-.038 0 0zm8.444-2.506a19.256 19.256 0 0 1-2.3 8.293 17.19 17.19 0 0 1-.923 1.5v-6.684a.833.833 0 0 0-.6-.789l-2.147-.715a8.7 8.7 0 0 0-2.366-.742 8.1 8.1 0 0 0-2.213.691l-2.3.764a.833.833 0 0 0-.6.789v6.673c-.3-.439-.583-.894-.843-1.344a18.893 18.893 0 0 1-2.379-8.437l.238.092c.3.119.606.242.906.369.635.268 1.1-.475 1.006-1.006q-.1-.577-.206-1.154l2.532.886.96.336-1.614.384c-1.026.244-.591 1.822.435 1.577l4.081-.971.425.1 1.428.34 2.227.53c1.025.244 1.461-1.333.435-1.577l-1.614-.384.96-.336 2.533-.886-.206 1.154c-.095.531.371 1.274 1.006 1.006q.451-.19.906-.369c.072-.031.152-.059.232-.089zm-8.4.5c-.168 0-.195-.044 0 0zm.147-1.67c.1 0 .112.026 0 0zm8.723-4.07a4.064 4.064 0 0 1-.11.837c.041-.219-.2.073-.356.164a9.037 9.037 0 0 1-1.123.522l-7.215 2.524c-.029-.009-.061-.018-.1-.032l-.822-.288-2.51-.878-3.792-1.326a10.78 10.78 0 0 1-1.339-.646.892.892 0 0 0-.154-.075v-.017a2.272 2.272 0 0 1-.064-.4 21.627 21.627 0 0 1-.058-2.285 22.92 22.92 0 0 1 .225-3.47l.126.15c.68.808 1.831-.355 1.157-1.157l-.791-.94 3.971 2.143a.822.822 0 0 0 .991-1.285l-3.009-3.809a5.046 5.046 0 0 1 .706-.6l4.8 4.26a.837.837 0 0 0 1.157 0L134 408a5.106 5.106 0 0 1 .8.671l-3.009 3.809a.822.822 0 0 0 .991 1.285l3.988-2.152c.027.077.053.155.078.233l-.6.716c-.637.758.355 1.837 1.04 1.272a21.407 21.407 0 0 1 .183 2.654c-.001.812.008 1.633-.031 2.45zm-8.949-12.35h.281a12.27 12.27 0 0 1 3.648.625l-3.876 3.442-3.825-3.4a12.1 12.1 0 0 1 3.772-.67z" class="cls-1" transform="translate(-112.066 -404.949)"/>
                <path id="패스_2676" d="M191.769 464.3l-1.586.623-1.583-.623a.822.822 0 0 0-1.035.789v3.68a.842.842 0 0 0 .6.789 6.55 6.55 0 0 0 2.021.738 6.553 6.553 0 0 0 2.021-.738.843.843 0 0 0 .6-.789v-3.68a.823.823 0 0 0-1.038-.789zm-2.569 3.92v-1.932l.473.186a.854.854 0 0 0 1.024 0l.474-.186v1.932l-.986.387h-.01l-.674-.265zm1.091.425c.08.01.1.03 0 0z" class="cls-1" transform="translate(-173.618 -453.305)"/>
            </g>
        </g>
        <g id="그룹_3437" transform="translate(5789.245 -20634.523)">
            <g id="그룹_3433-2" transform="translate(-5666.245 21058.301)">
                <path id="패스_2672-2" d="M157.083 459.323a.828.828 0 0 0-1.035.789 6.439 6.439 0 0 0 .029 2.516.994.994 0 0 0 .045.11c.011.028.023.056.037.085a3.78 3.78 0 0 0 2.778 1.657c.816.154 2.478.259 2.478-.984 0-2.086-2.623-3.596-4.332-4.173zm.549 2.776a2.753 2.753 0 0 1-.065-.812 5.069 5.069 0 0 1 1.9 1.559l.047.077-.146-.021a2.618 2.618 0 0 1-1.736-.802z" class="cls-2" transform="translate(-147.833 -449.249)"/>
                <path id="패스_2673-2" d="M189.813 525.711a3.045 3.045 0 0 0-4.007 1.739 6.738 6.738 0 0 0-.129 2.263v7.109c0 1.336.376 2.625 1.753 3.165a2.975 2.975 0 0 0 4.124-2.432.95.95 0 0 0 .012-.145.908.908 0 0 0 0-.1v-5.748c-.001-1.956.544-4.95-1.753-5.851zm-2.5 11.639v-8.97a1.329 1.329 0 0 1 2.6-.3 8.271 8.271 0 0 1 .016 2.012v7.314a1.316 1.316 0 0 1-2.616-.056z" class="cls-2" transform="translate(-172.056 -503.225)"/>
                <path id="패스_2674-2" d="M221.918 459.323c-1.827.615-3.9 1.936-4.3 3.956-.265 1.345 1.441 1.363 2.3 1.224a3.851 3.851 0 0 0 2.922-1.68.868.868 0 0 0 .037-.085.9.9 0 0 0 .045-.11 6.44 6.44 0 0 0 .03-2.516.829.829 0 0 0-1.034-.789zm-2.142 3.551c-.085.018-.188.035-.292.049l.046-.077a4.639 4.639 0 0 1 1.9-1.564 2.762 2.762 0 0 1-.066.818 2.517 2.517 0 0 1-1.588.774z" class="cls-2" transform="translate(-198.099 -449.249)"/>
                <path id="패스_2675-2" d="M119.368 410.043c-.022.049-.041.1-.062.147l-.773-.919-.664-2.427a.824.824 0 0 0-.788-.6h-4.2a.826.826 0 0 0-.788 1.035l.709 2.592a.825.825 0 0 0 .789.6h3.822L118.7 412a15.393 15.393 0 0 0-.308 1.55l-2.837.725a.778.778 0 0 0-.851-.3.819.819 0 0 0-.571 1.006l.415 1.04a.836.836 0 0 0 1.006.571.868.868 0 0 0 .613-.788l2.049-.524c-.045.718-.06 1.441-.061 2.165a10.287 10.287 0 0 0 .215 2.824c.239.826 1.266 1.253 2.1 1.571l.122.682a4.7 4.7 0 0 0-1.151-.292.819.819 0 0 0-.818.818 21.418 21.418 0 0 0 2.478 10.105 13.557 13.557 0 0 0 2.654 3.6.826.826 0 0 0 1.4-.579v-8.3l3.48-1.155.4.132 1.534.509 1.549.514v8.3a.825.825 0 0 0 1.4.579 13.742 13.742 0 0 0 2.575-3.452 21.09 21.09 0 0 0 2.558-10.25.819.819 0 0 0-.818-.818 4.7 4.7 0 0 0-1.15.292l.123-.686c.919-.36 1.94-.808 2.16-1.813a16.672 16.672 0 0 0 .15-3.541q-.009-.637-.049-1.271l2.322.594a.868.868 0 0 0 .613.788.836.836 0 0 0 1.006-.571l.415-1.04a.819.819 0 0 0-.571-1.006.778.778 0 0 0-.851.3l-3.121-.8q-.1-.616-.239-1.222l1.5-1.784h3.822a.825.825 0 0 0 .788-.6l.709-2.592a.826.826 0 0 0-.788-1.035h-4.2a.825.825 0 0 0-.788.6l-.664 2.427-.961 1.143q-.075-.186-.156-.371a.822.822 0 0 0-1.119-.293l-1.321.713.976-1.235a.825.825 0 0 0 .128-.991c-1.808-2.354-4.858-3.181-7.715-3.281-.024 0-.047-.007-.071-.007h-.281c-.025 0-.048.005-.072.007a12.208 12.208 0 0 0-5.381 1.318.718.718 0 0 0-.324.183 7.231 7.231 0 0 0-2.01 1.78.826.826 0 0 0 .128.991l.976 1.235-1.32-.713a.822.822 0 0 0-1.129.291zm-2.65-1.208h-2.5l-.261-.956h2.5zm24.108 0l.261-.956h2.5l-.262.956zm-12.3 17.852c-.1-.01-.13-.038 0 0zm8.444-2.506a19.256 19.256 0 0 1-2.3 8.293 17.19 17.19 0 0 1-.923 1.5v-6.684a.833.833 0 0 0-.6-.789l-2.147-.715a8.7 8.7 0 0 0-2.366-.742 8.1 8.1 0 0 0-2.213.691l-2.3.764a.833.833 0 0 0-.6.789v6.673c-.3-.439-.583-.894-.843-1.344a18.893 18.893 0 0 1-2.379-8.437l.238.092c.3.119.606.242.906.369.635.268 1.1-.475 1.006-1.006q-.1-.577-.206-1.154l2.532.886.96.336-1.614.384c-1.026.244-.591 1.822.435 1.577l4.081-.971.425.1 1.428.34 2.227.53c1.025.244 1.461-1.333.435-1.577l-1.614-.384.96-.336 2.533-.886-.206 1.154c-.095.531.371 1.274 1.006 1.006q.451-.19.906-.369c.072-.031.152-.059.232-.089zm-8.4.5c-.168 0-.195-.044 0 0zm.147-1.67c.1 0 .112.026 0 0zm8.723-4.07a4.064 4.064 0 0 1-.11.837c.041-.219-.2.073-.356.164a9.037 9.037 0 0 1-1.123.522l-7.215 2.524c-.029-.009-.061-.018-.1-.032l-.822-.288-2.51-.878-3.792-1.326a10.78 10.78 0 0 1-1.339-.646.892.892 0 0 0-.154-.075v-.017a2.272 2.272 0 0 1-.064-.4 21.627 21.627 0 0 1-.058-2.285 22.92 22.92 0 0 1 .225-3.47l.126.15c.68.808 1.831-.355 1.157-1.157l-.791-.94 3.971 2.143a.822.822 0 0 0 .991-1.285l-3.009-3.809a5.046 5.046 0 0 1 .706-.6l4.8 4.26a.837.837 0 0 0 1.157 0L134 408a5.106 5.106 0 0 1 .8.671l-3.009 3.809a.822.822 0 0 0 .991 1.285l3.988-2.152c.027.077.053.155.078.233l-.6.716c-.637.758.355 1.837 1.04 1.272a21.407 21.407 0 0 1 .183 2.654c-.001.812.008 1.633-.031 2.45zm-8.949-12.35h.281a12.27 12.27 0 0 1 3.648.625l-3.876 3.442-3.825-3.4a12.1 12.1 0 0 1 3.772-.67z" class="cls-2" transform="translate(-112.066 -404.949)"/>
                <path id="패스_2676-2" d="M191.769 464.3l-1.586.623-1.583-.623a.822.822 0 0 0-1.035.789v3.68a.842.842 0 0 0 .6.789 6.55 6.55 0 0 0 2.021.738 6.553 6.553 0 0 0 2.021-.738.843.843 0 0 0 .6-.789v-3.68a.823.823 0 0 0-1.038-.789zm-2.569 3.92v-1.932l.473.186a.854.854 0 0 0 1.024 0l.474-.186v1.932l-.986.387h-.01l-.674-.265zm1.091.425c.08.01.1.03 0 0z" class="cls-2" transform="translate(-173.618 -453.305)"/>
            </g>
        </g>
    </g>
</svg>
