<svg xmlns="http://www.w3.org/2000/svg" width="31.92" height="39.507" viewBox="0 0 31.92 39.507">
    <g>
        <path fill="#dbe3f8" stroke="#dbe3f8" stroke-width="0.5px" d="M424.649 408.2a2.522 2.522 0 0 1-1.082.8.81.81 0 0 0-.953-.457.82.82 0 0 0-.571 1.006l.587 1.473a.836.836 0 0 0 1.006.571.819.819 0 0 0 .571-1.006l-.031-.079a6.041 6.041 0 0 0 2.117-1.662c1-1.034 2.746-1.831 4.19-1.212.723.309.858 1.505 1.432 2.069a3.311 3.311 0 0 0 1.854.8c.216.033.433.053.651.069a.579.579 0 0 0 .231.028c.041.046.083.09.122.138a5.784 5.784 0 0 1 .533.779l-.082.061h-4.043a.826.826 0 0 0-.818.818v.5a2.79 2.79 0 0 0-2.12 2.706c-.024.462-.017.929-.009 1.395a2.168 2.168 0 0 0-.328-.045 1.952 1.952 0 0 0-1.929 1.651 1.23 1.23 0 0 0-.005.629 2.008 2.008 0 0 0 1.935 1.667 1.674 1.674 0 0 0 .487-.047 2.735 2.735 0 0 0 1.97 1.791v.332h-1.3a.826.826 0 0 0-.818.818v3.273a.819.819 0 0 0 .818.818h1.3v4.466c0 .773.7 1.1 1.249 1.533l.886.689a.828.828 0 0 0 1.4-.578v-1.036h.749v4.371a11.03 11.03 0 0 0 .112 2.191 3.047 3.047 0 0 0 3.539 2.359 3.244 3.244 0 0 0 2.472-3.331v-5.59h.653V434a.824.824 0 0 0 1.231.706l1.061-.784a4.541 4.541 0 0 0 1.224-.982 2.74 2.74 0 0 0 .112-1.269v-1.906a3.427 3.427 0 0 0 2.378-3.2 3.294 3.294 0 0 0-2.378-3.2v-.716a2.672 2.672 0 0 0 1.958-1.829 2.307 2.307 0 0 0 .5.083 1.973 1.973 0 0 0 0-3.946 1.724 1.724 0 0 0-.337.017v-1.364a2.744 2.744 0 0 0-2.12-2.7v-.5a.826.826 0 0 0-.818-.818h-4.089l-.046-.033q.211-.346.446-.676a3.252 3.252 0 0 1 .234-.287h.04c.043.077.481-.033.61-.047a3.586 3.586 0 0 0 1.986-.758c.679-.586.755-1.754 1.518-2.143a3.765 3.765 0 0 1 2.375.026 3.955 3.955 0 0 1 1.712 1.082 6.8 6.8 0 0 0 2.221 1.764l-.032.08a.819.819 0 0 0 .571 1.006.836.836 0 0 0 1.006-.571l.586-1.473a.819.819 0 0 0-.571-1.006.81.81 0 0 0-.952.455 2.327 2.327 0 0 1-.989-.7 16.027 16.027 0 0 0-1.444-1.365l.121-.126a7.733 7.733 0 0 0 2.742 1.212c1.032.157 1.475-1.419.435-1.578a8.266 8.266 0 0 1-2.892-1.386.819.819 0 0 0-.991.128l-.912.944a5.535 5.535 0 0 0-3.815.093c-1.075.461-1.037 1.612-1.763 2.325-.5.487-1.282.3-1.911.407h-5.371c-.338-.067-.743-.008-1.051-.054a2.241 2.241 0 0 1-.923-.336c-.319-.209-.454-.741-.6-1.071a2.577 2.577 0 0 0-1.177-1.271 5.053 5.053 0 0 0-3.8-.08l-.925-.957a.82.82 0 0 0-.991-.128 8.263 8.263 0 0 1-2.891 1.386c-1.041.159-.6 1.735.435 1.578a7.734 7.734 0 0 0 2.742-1.212l.114.119a11.106 11.106 0 0 0-1.344 1.261zm18.764 9.911h-.356v-1.656a.826.826 0 0 0-.818-.818h-.406a4.383 4.383 0 0 0 .066-.515 1.426 1.426 0 0 0 0-.309 4.442 4.442 0 0 0-.4-1.6h1.918zm2.146 1.636a1.612 1.612 0 0 1-.51 1.167v-1.167zm-2.146 12.371l-.356.263v-9.657h.356zm0-11.03h-.356v-1.341h.356zm-3.671 6.33h-4.07c-.081-1.882-.221-4.694 2.035-4.694s2.116 2.816 2.034 4.698zm-5.846-6.33v-1.341h7.526v1.341zm-1.636 11.245l-.259-.2v-9.408h.259zm-1.9-12.586v1.167a1.612 1.612 0 0 1-.51-1.167zm1.64 1.345v-1.341h.259v1.341zm0-7.872h1.928a4.494 4.494 0 0 0-.423 1.75 3.813 3.813 0 0 0 .038.671h-.466a.826.826 0 0 0-.818.818v1.656H432zm9.176 4.057h.245v.838h-.949a4.44 4.44 0 0 0 .704-.837zm-7.281 0h.3a4.274 4.274 0 0 0 .768.838h-1.066zm6.377-2.307a2.565 2.565 0 1 1-2.566-2.565 2.6 2.6 0 0 1 2.565 2.565zm-9.908-.331v3.477h-.5c.007-.125.011-.239.011-.337.004-.779-.285-2.572.488-3.14zm-2.794 4.295a.337.337 0 0 1 .673 0c.023.438-.65.434-.673-.001zm2.794 7.323h-.484v-1.637h.484zm3.531 5.073v-8.6h.854a4.649 4.649 0 0 0-.689 2.336c-.034 1.057 0 2.119 0 3.176a.824.824 0 0 0 .585.779v2.309zm5.033 8.193a1.377 1.377 0 0 1-1.571.753c-.75-.13-1.077-1.035-1.077-1.7v-9.519h2.851v8.278a5.27 5.27 0 0 1-.203 2.187zm1.84-8.193v-2.3a.716.716 0 0 0 .345-.209.756.756 0 0 0 .241-.579v-3.166a4.326 4.326 0 0 0-.675-2.346h.742v8.6zm4.281-3.31v-2.9a1.856 1.856 0 0 1 0 2.899zm2.794-9.085c.022.407-.558.433-.659.085v-.17a.336.336 0 0 1 .659.083zm-2.31-1.155c0 .1 0 .212.011.337h-.5v-3.477c.778.566.489 2.36.489 3.138zm-7.827-7.01a3.786 3.786 0 0 0-.9.079q-.073-.127-.15-.255h2.094l-.165.29a4.6 4.6 0 0 0-.879-.115z" transform="translate(-36.245 -423.54) translate(-385.501 20.83)"/>
        <path fill="#5f5f5f" stroke="#fff" stroke-width="0.4px" d="M424.649 408.2a2.522 2.522 0 0 1-1.082.8.81.81 0 0 0-.953-.457.82.82 0 0 0-.571 1.006l.587 1.473a.836.836 0 0 0 1.006.571.819.819 0 0 0 .571-1.006l-.031-.079a6.041 6.041 0 0 0 2.117-1.662c1-1.034 2.746-1.831 4.19-1.212.723.309.858 1.505 1.432 2.069a3.311 3.311 0 0 0 1.854.8c.216.033.433.053.651.069a.579.579 0 0 0 .231.028c.041.046.083.09.122.138a5.784 5.784 0 0 1 .533.779l-.082.061h-4.043a.826.826 0 0 0-.818.818v.5a2.79 2.79 0 0 0-2.12 2.706c-.024.462-.017.929-.009 1.395a2.168 2.168 0 0 0-.328-.045 1.952 1.952 0 0 0-1.929 1.651 1.23 1.23 0 0 0-.005.629 2.008 2.008 0 0 0 1.935 1.667 1.674 1.674 0 0 0 .487-.047 2.735 2.735 0 0 0 1.97 1.791v.332h-1.3a.826.826 0 0 0-.818.818v3.273a.819.819 0 0 0 .818.818h1.3v4.466c0 .773.7 1.1 1.249 1.533l.886.689a.828.828 0 0 0 1.4-.578v-1.036h.749v4.371a11.03 11.03 0 0 0 .112 2.191 3.047 3.047 0 0 0 3.539 2.359 3.244 3.244 0 0 0 2.472-3.331v-5.59h.653V434a.824.824 0 0 0 1.231.706l1.061-.784a4.541 4.541 0 0 0 1.224-.982 2.74 2.74 0 0 0 .112-1.269v-1.906a3.427 3.427 0 0 0 2.378-3.2 3.294 3.294 0 0 0-2.378-3.2v-.716a2.672 2.672 0 0 0 1.958-1.829 2.307 2.307 0 0 0 .5.083 1.973 1.973 0 0 0 0-3.946 1.724 1.724 0 0 0-.337.017v-1.364a2.744 2.744 0 0 0-2.12-2.7v-.5a.826.826 0 0 0-.818-.818h-4.089l-.046-.033q.211-.346.446-.676a3.252 3.252 0 0 1 .234-.287h.04c.043.077.481-.033.61-.047a3.586 3.586 0 0 0 1.986-.758c.679-.586.755-1.754 1.518-2.143a3.765 3.765 0 0 1 2.375.026 3.955 3.955 0 0 1 1.712 1.082 6.8 6.8 0 0 0 2.221 1.764l-.032.08a.819.819 0 0 0 .571 1.006.836.836 0 0 0 1.006-.571l.586-1.473a.819.819 0 0 0-.571-1.006.81.81 0 0 0-.952.455 2.327 2.327 0 0 1-.989-.7 16.027 16.027 0 0 0-1.444-1.365l.121-.126a7.733 7.733 0 0 0 2.742 1.212c1.032.157 1.475-1.419.435-1.578a8.266 8.266 0 0 1-2.892-1.386.819.819 0 0 0-.991.128l-.912.944a5.535 5.535 0 0 0-3.815.093c-1.075.461-1.037 1.612-1.763 2.325-.5.487-1.282.3-1.911.407h-5.371c-.338-.067-.743-.008-1.051-.054a2.241 2.241 0 0 1-.923-.336c-.319-.209-.454-.741-.6-1.071a2.577 2.577 0 0 0-1.177-1.271 5.053 5.053 0 0 0-3.8-.08l-.925-.957a.82.82 0 0 0-.991-.128 8.263 8.263 0 0 1-2.891 1.386c-1.041.159-.6 1.735.435 1.578a7.734 7.734 0 0 0 2.742-1.212l.114.119a11.106 11.106 0 0 0-1.344 1.261zm18.764 9.911h-.356v-1.656a.826.826 0 0 0-.818-.818h-.406a4.383 4.383 0 0 0 .066-.515 1.426 1.426 0 0 0 0-.309 4.442 4.442 0 0 0-.4-1.6h1.918zm2.146 1.636a1.612 1.612 0 0 1-.51 1.167v-1.167zm-2.146 12.371l-.356.263v-9.657h.356zm0-11.03h-.356v-1.341h.356zm-3.671 6.33h-4.07c-.081-1.882-.221-4.694 2.035-4.694s2.116 2.816 2.034 4.698zm-5.846-6.33v-1.341h7.526v1.341zm-1.636 11.245l-.259-.2v-9.408h.259zm-1.9-12.586v1.167a1.612 1.612 0 0 1-.51-1.167zm1.64 1.345v-1.341h.259v1.341zm0-7.872h1.928a4.494 4.494 0 0 0-.423 1.75 3.813 3.813 0 0 0 .038.671h-.466a.826.826 0 0 0-.818.818v1.656H432zm9.176 4.057h.245v.838h-.949a4.44 4.44 0 0 0 .704-.837zm-7.281 0h.3a4.274 4.274 0 0 0 .768.838h-1.066zm6.377-2.307a2.565 2.565 0 1 1-2.566-2.565 2.6 2.6 0 0 1 2.565 2.565zm-9.908-.331v3.477h-.5c.007-.125.011-.239.011-.337.004-.779-.285-2.572.488-3.14zm-2.794 4.295a.337.337 0 0 1 .673 0c.023.438-.65.434-.673-.001zm2.794 7.323h-.484v-1.637h.484zm3.531 5.073v-8.6h.854a4.649 4.649 0 0 0-.689 2.336c-.034 1.057 0 2.119 0 3.176a.824.824 0 0 0 .585.779v2.309zm5.033 8.193a1.377 1.377 0 0 1-1.571.753c-.75-.13-1.077-1.035-1.077-1.7v-9.519h2.851v8.278a5.27 5.27 0 0 1-.203 2.187zm1.84-8.193v-2.3a.716.716 0 0 0 .345-.209.756.756 0 0 0 .241-.579v-3.166a4.326 4.326 0 0 0-.675-2.346h.742v8.6zm4.281-3.31v-2.9a1.856 1.856 0 0 1 0 2.899zm2.794-9.085c.022.407-.558.433-.659.085v-.17a.336.336 0 0 1 .659.083zm-2.31-1.155c0 .1 0 .212.011.337h-.5v-3.477c.778.566.489 2.36.489 3.138zm-7.827-7.01a3.786 3.786 0 0 0-.9.079q-.073-.127-.15-.255h2.094l-.165.29a4.6 4.6 0 0 0-.879-.115z" transform="translate(-36.245 -423.54) translate(-385.501 18.83)"/>
    </g>
</svg>
