<svg xmlns="http://www.w3.org/2000/svg" width="26.171" height="28.505" viewBox="0 0 26.171 28.505">
    <defs>
        <style>
            .cls-1{fill:#dbe3f8;stroke:#dbe3f8;stroke-width:.5px}.cls-2{fill:#5f5f5f;stroke:#fff;stroke-width:.1px}
        </style>
    </defs>
    <g id="그룹_3463" transform="translate(-38.729 -507.93)">
        <g id="그룹_3446" transform="translate(39 509.98)">
            <path id="패스_2828" d="M-293.466-149.518c-.608-6.115-4.374-9.482-10.6-9.482-4.653 0-12.98 2.579-14.675 12.244a18.213 18.213 0 0 0 2.417 12.447 2.818 2.818 0 0 0 2.487 1.513c1.152 0 1.424-.5 5.685-2.634a30.237 30.237 0 0 1 11.392-3.375.555.555 0 0 0 .25-.085c.155-.1 3.846-2.56 3.044-10.628zm-24.179 2.956a15.684 15.684 0 0 1 .582-2.3c2.181.114 4.064.66 6.965 0 .376.469 1.24 2.07.045 5.934a28.409 28.409 0 0 1-7.281 3.36 16.486 16.486 0 0 1-.311-6.993zm8.677-2.616c.134-.044.268-.085.4-.134a2.134 2.134 0 0 1 2.1 3.62c-.7.631-1.423 1.218-2.171 1.771.639-2.816.158-4.426-.329-5.257zm-8.05 10.684a29.346 29.346 0 0 0 11.3-6.364 3.257 3.257 0 0 0-3.23-5.509 12.022 12.022 0 0 1-5.31.633c3.689-7.062 14.12-7.559 16.595-2.695a.556.556 0 0 0 .751.244.562.562 0 0 0 .243-.755c-2.97-5.839-14.884-5.106-18.777 3.1l-1.193-.109c2.668-6.162 8.873-7.926 12.573-7.926 5.658 0 8.94 2.929 9.491 8.472a15.6 15.6 0 0 1-.447 6.131c-6.906-1.834-17.76 6.754-20.124 8.719a16.126 16.126 0 0 1-1.872-3.941zm20-1.413a31.339 31.339 0 0 0-11.652 3.484c-4.188 2.082-4.464 2.642-5.446 2.476 2.773-2.246 12.66-9.781 18.708-8.272a6.187 6.187 0 0 1-1.612 2.313z" class="cls-1" transform="translate(319 159)"/>
            <path id="패스_2829" d="M-279.344-142.937a.559.559 0 0 0 .611.5.56.56 0 0 0 .5-.614 13.074 13.074 0 0 0-.211-1.391.557.557 0 0 0-.662-.433.561.561 0 0 0-.43.665 11.983 11.983 0 0 1 .192 1.273z" class="cls-1" transform="translate(301.545 152.755)"/>
        </g>
        <g id="그룹_3432" transform="translate(39 507.98)">
            <path id="패스_2828-2" d="M-293.466-149.518c-.608-6.115-4.374-9.482-10.6-9.482-4.653 0-12.98 2.579-14.675 12.244a18.213 18.213 0 0 0 2.417 12.447 2.818 2.818 0 0 0 2.487 1.513c1.152 0 1.424-.5 5.685-2.634a30.237 30.237 0 0 1 11.392-3.375.555.555 0 0 0 .25-.085c.155-.1 3.846-2.56 3.044-10.628zm-24.179 2.956a15.684 15.684 0 0 1 .582-2.3c2.181.114 4.064.66 6.965 0 .376.469 1.24 2.07.045 5.934a28.409 28.409 0 0 1-7.281 3.36 16.486 16.486 0 0 1-.311-6.993zm8.677-2.616c.134-.044.268-.085.4-.134a2.134 2.134 0 0 1 2.1 3.62c-.7.631-1.423 1.218-2.171 1.771.639-2.816.158-4.426-.329-5.257zm-8.05 10.684a29.346 29.346 0 0 0 11.3-6.364 3.257 3.257 0 0 0-3.23-5.509 12.022 12.022 0 0 1-5.31.633c3.689-7.062 14.12-7.559 16.595-2.695a.556.556 0 0 0 .751.244.562.562 0 0 0 .243-.755c-2.97-5.839-14.884-5.106-18.777 3.1l-1.193-.109c2.668-6.162 8.873-7.926 12.573-7.926 5.658 0 8.94 2.929 9.491 8.472a15.6 15.6 0 0 1-.447 6.131c-6.906-1.834-17.76 6.754-20.124 8.719a16.126 16.126 0 0 1-1.872-3.941zm20-1.413a31.339 31.339 0 0 0-11.652 3.484c-4.188 2.082-4.464 2.642-5.446 2.476 2.773-2.246 12.66-9.781 18.708-8.272a6.187 6.187 0 0 1-1.612 2.313z" class="cls-2" transform="translate(319 159)"/>
            <path id="패스_2829-2" d="M-279.344-142.937a.559.559 0 0 0 .611.5.56.56 0 0 0 .5-.614 13.074 13.074 0 0 0-.211-1.391.557.557 0 0 0-.662-.433.561.561 0 0 0-.43.665 11.983 11.983 0 0 1 .192 1.273z" class="cls-2" transform="translate(301.545 152.755)"/>
        </g>
    </g>
</svg>
