<svg xmlns="http://www.w3.org/2000/svg" width="29.753" height="24.849" viewBox="0 0 29.753 24.849">
    <g>
        <path fill="#dbe3f8" stroke="#dbe3f8" stroke-width="0.5px" d="M-79-149.681v-5.49A1.831 1.831 0 0 1-77.172-157h6.7a1.831 1.831 0 0 1 1.828 1.83v3.772a1.808 1.808 0 0 1 .609-.113h3.657a1.831 1.831 0 0 1 1.828 1.83 1.82 1.82 0 0 1-.581 1.33 2.189 2.189 0 0 1-.4 3.308 1.908 1.908 0 0 0-.85 1.589v1.648l4.418-.368A1.84 1.84 0 0 0-58.279-144v-6.9a3.041 3.041 0 0 1 1.223-2.44h-3.051a.609.609 0 0 1-.609-.61.609.609 0 0 1 .609-.61h3.207a2.669 2.669 0 0 1 2.5-1.83h2.819a.611.611 0 0 1 .586.778l-1.219 4.269a.61.61 0 0 1-.586.442h-1.624l.573 6.89a5.469 5.469 0 0 1 4.1 5.311.609.609 0 0 1-.609.61h-.658a4.263 4.263 0 0 1-8.435 0h-8.02a4.263 4.263 0 0 1-8.435 0h-2.487a.609.609 0 0 1-.605-.61 10.315 10.315 0 0 1 2.279-6.471l-.912-2.744A1.827 1.827 0 0 1-79-149.681zm5.5 1.829h-2.822l.549 1.652a10.419 10.419 0 0 1 2.273-1.651zm.6-7.929h-1.828v1.83h1.828zm3.047.609a.61.61 0 0 0-.609-.609h-1.219v2.44a.609.609 0 0 1-.609.61h-3.047a.609.609 0 0 1-.609-.61v-2.44h-1.219a.61.61 0 0 0-.609.609v5.49a.611.611 0 0 0 .609.61h7.313zm5.485 4.88h-3.662a.61.61 0 0 0-.609.61.611.611 0 0 0 .609.61h3.657a.611.611 0 0 0 .609-.61.61.61 0 0 0-.609-.609zm.174 4.234a.981.981 0 0 0-.542-1.794h-3.9a9.14 9.14 0 0 0-7.78 4.358c3.229-2.586 8.361-2.788 10.827.792v-.752a3.123 3.123 0 0 1 1.389-2.603zm10.946-6.063l.87-3.05h-2.011a1.49 1.49 0 0 0-1.447 1.525 1.489 1.489 0 0 0 1.447 1.525zm-3.348.012a1.824 1.824 0 0 0-.459 1.207v6.9a3.067 3.067 0 0 1-2.794 3.039l-4.519.377v1.269h9.7l-.994-11.938a2.709 2.709 0 0 1-.938-.853zm2.867 9.413l.282 3.383h2.444a4.247 4.247 0 0 0-2.731-3.382zm1.488 4.6h-5.971a3.049 3.049 0 0 0 5.966.004zm-16.455 0h-5.971a3.049 3.049 0 0 0 5.967.004zm3.079-1.219c-.716-7.256-11.1-5.677-12.1 0z" transform="translate(-125.25 -511.235) translate(204.5 670.285)"/>
        <path fill="#5f5f5f" stroke="#fff" stroke-width="0.1px" d="M-79-149.681v-5.49A1.831 1.831 0 0 1-77.172-157h6.7a1.831 1.831 0 0 1 1.828 1.83v3.772a1.808 1.808 0 0 1 .609-.113h3.657a1.831 1.831 0 0 1 1.828 1.83 1.82 1.82 0 0 1-.581 1.33 2.189 2.189 0 0 1-.4 3.308 1.908 1.908 0 0 0-.85 1.589v1.648l4.418-.368A1.84 1.84 0 0 0-58.279-144v-6.9a3.041 3.041 0 0 1 1.223-2.44h-3.051a.609.609 0 0 1-.609-.61.609.609 0 0 1 .609-.61h3.207a2.669 2.669 0 0 1 2.5-1.83h2.819a.611.611 0 0 1 .586.778l-1.219 4.269a.61.61 0 0 1-.586.442h-1.624l.573 6.89a5.469 5.469 0 0 1 4.1 5.311.609.609 0 0 1-.609.61h-.658a4.263 4.263 0 0 1-8.435 0h-8.02a4.263 4.263 0 0 1-8.435 0h-2.487a.609.609 0 0 1-.605-.61 10.315 10.315 0 0 1 2.279-6.471l-.912-2.744A1.827 1.827 0 0 1-79-149.681zm5.5 1.829h-2.822l.549 1.652a10.419 10.419 0 0 1 2.273-1.651zm.6-7.929h-1.828v1.83h1.828zm3.047.609a.61.61 0 0 0-.609-.609h-1.219v2.44a.609.609 0 0 1-.609.61h-3.047a.609.609 0 0 1-.609-.61v-2.44h-1.219a.61.61 0 0 0-.609.609v5.49a.611.611 0 0 0 .609.61h7.313zm5.485 4.88h-3.662a.61.61 0 0 0-.609.61.611.611 0 0 0 .609.61h3.657a.611.611 0 0 0 .609-.61.61.61 0 0 0-.609-.609zm.174 4.234a.981.981 0 0 0-.542-1.794h-3.9a9.14 9.14 0 0 0-7.78 4.358c3.229-2.586 8.361-2.788 10.827.792v-.752a3.123 3.123 0 0 1 1.389-2.603zm10.946-6.063l.87-3.05h-2.011a1.49 1.49 0 0 0-1.447 1.525 1.489 1.489 0 0 0 1.447 1.525zm-3.348.012a1.824 1.824 0 0 0-.459 1.207v6.9a3.067 3.067 0 0 1-2.794 3.039l-4.519.377v1.269h9.7l-.994-11.938a2.709 2.709 0 0 1-.938-.853zm2.867 9.413l.282 3.383h2.444a4.247 4.247 0 0 0-2.731-3.382zm1.488 4.6h-5.971a3.049 3.049 0 0 0 5.966.004zm-16.455 0h-5.971a3.049 3.049 0 0 0 5.967.004zm3.079-1.219c-.716-7.256-11.1-5.677-12.1 0z" transform="translate(-125.25 -511.235) translate(204.5 668.285)"/>
    </g>
</svg>
