<svg xmlns="http://www.w3.org/2000/svg" width="26.933" height="28.616" viewBox="0 0 26.933 28.616">
    <g>
        <path fill="#dbe3f8" stroke="#dbe3f8" stroke-width="0.5px" d="M19.956 95.533l-1.43-1.43 1.43-1.431a6.042 6.042 0 0 0 7.661-8.232.605.605 0 0 0-.974-.167L24.3 86.617a1.21 1.21 0 0 1-1.711-1.712l2.343-2.343a.6.6 0 0 0-.167-.973 6.042 6.042 0 0 0-8.232 7.661L15.1 90.681l-1.43-1.431a6.042 6.042 0 0 0-8.232-7.661.605.605 0 0 0-.168.973l2.343 2.343a1.21 1.21 0 0 1-1.711 1.712l-2.339-2.343a.605.605 0 0 0-.974.167 6.042 6.042 0 0 0 7.661 8.232l1.43 1.43-1.43 1.43a6.042 6.042 0 0 0-7.661 8.232.605.605 0 0 0 .974.167l2.343-2.343a1.21 1.21 0 1 1 1.711 1.711l-2.343 2.343a.6.6 0 0 0 .168.973 6.042 6.042 0 0 0 8.232-7.661l1.43-1.43 1.43 1.43a6.045 6.045 0 0 0 8.232 7.661.6.6 0 0 0 .167-.973l-2.344-2.343a1.21 1.21 0 1 1 1.711-1.711l2.343 2.343a.605.605 0 0 0 .974-.167 6.042 6.042 0 0 0-7.661-8.232zm-9.141-4.007a.6.6 0 0 0-.689-.118A4.832 4.832 0 0 1 3.374 85.8l1.676 1.672a2.42 2.42 0 0 0 3.422-3.422L6.8 82.374a4.831 4.831 0 0 1 5.612 6.753.605.605 0 0 0 .118.688l1.721 1.721-1.711 1.711zm1.593 7.553a4.831 4.831 0 0 1-5.608 6.753l1.677-1.676a2.42 2.42 0 1 0-3.423-3.423l-1.68 1.677a4.831 4.831 0 0 1 6.752-5.61.605.605 0 0 0 .689-.118l6.865-6.865a.605.605 0 0 0 .118-.688 4.831 4.831 0 0 1 5.612-6.753l-1.676 1.674a2.42 2.42 0 0 0 3.423 3.423l1.675-1.673a4.832 4.832 0 0 1-6.753 5.613.6.6 0 0 0-.689.118l-6.865 6.865a.606.606 0 0 0-.117.684zm14.424 3.331l-1.676-1.677a2.42 2.42 0 1 0-3.423 3.423l1.677 1.676a4.831 4.831 0 0 1-5.61-6.752.606.606 0 0 0-.118-.689l-1.723-1.721 1.711-1.711 1.721 1.721a.605.605 0 0 0 .689.118 4.831 4.831 0 0 1 6.753 5.612z" transform="translate(-213.136 -507.82) translate(211.5 428.98)"/>
        <path fill="#5f5f5f" stroke="#fff" stroke-width="0.1px" d="M19.956 95.533l-1.43-1.43 1.43-1.431a6.042 6.042 0 0 0 7.661-8.232.605.605 0 0 0-.974-.167L24.3 86.617a1.21 1.21 0 0 1-1.711-1.712l2.343-2.343a.6.6 0 0 0-.167-.973 6.042 6.042 0 0 0-8.232 7.661L15.1 90.681l-1.43-1.431a6.042 6.042 0 0 0-8.232-7.661.605.605 0 0 0-.168.973l2.343 2.343a1.21 1.21 0 0 1-1.711 1.712l-2.339-2.343a.605.605 0 0 0-.974.167 6.042 6.042 0 0 0 7.661 8.232l1.43 1.43-1.43 1.43a6.042 6.042 0 0 0-7.661 8.232.605.605 0 0 0 .974.167l2.343-2.343a1.21 1.21 0 1 1 1.711 1.711l-2.343 2.343a.6.6 0 0 0 .168.973 6.042 6.042 0 0 0 8.232-7.661l1.43-1.43 1.43 1.43a6.045 6.045 0 0 0 8.232 7.661.6.6 0 0 0 .167-.973l-2.344-2.343a1.21 1.21 0 1 1 1.711-1.711l2.343 2.343a.605.605 0 0 0 .974-.167 6.042 6.042 0 0 0-7.661-8.232zm-9.141-4.007a.6.6 0 0 0-.689-.118A4.832 4.832 0 0 1 3.374 85.8l1.676 1.672a2.42 2.42 0 0 0 3.422-3.422L6.8 82.374a4.831 4.831 0 0 1 5.612 6.753.605.605 0 0 0 .118.688l1.721 1.721-1.711 1.711zm1.593 7.553a4.831 4.831 0 0 1-5.608 6.753l1.677-1.676a2.42 2.42 0 1 0-3.423-3.423l-1.68 1.677a4.831 4.831 0 0 1 6.752-5.61.605.605 0 0 0 .689-.118l6.865-6.865a.605.605 0 0 0 .118-.688 4.831 4.831 0 0 1 5.612-6.753l-1.676 1.674a2.42 2.42 0 0 0 3.423 3.423l1.675-1.673a4.832 4.832 0 0 1-6.753 5.613.6.6 0 0 0-.689.118l-6.865 6.865a.606.606 0 0 0-.117.684zm14.424 3.331l-1.676-1.677a2.42 2.42 0 1 0-3.423 3.423l1.677 1.676a4.831 4.831 0 0 1-5.61-6.752.606.606 0 0 0-.118-.689l-1.723-1.721 1.711-1.711 1.721 1.721a.605.605 0 0 0 .689.118 4.831 4.831 0 0 1 6.753 5.612z" transform="translate(-213.136 -507.82) translate(211.5 426.98)"/>
    </g>
</svg>
