<svg xmlns="http://www.w3.org/2000/svg" width="26.878" height="28.678" viewBox="0 0 26.878 28.678">
    <defs>
        <style>
            .cls-1{fill:#dbe3f8;stroke:#dbe3f8;stroke-width:.5px}.cls-2{fill:#5f5f5f;stroke:#fff;stroke-width:.1px}
        </style>
    </defs>
    <g id="그룹_3466" transform="translate(-295.75 -507.93)">
        <g id="그룹_3447" transform="translate(296 509.98)">
            <path id="패스_2701" d="M14.189-159A13.2 13.2 0 0 0 1-145.811a13.2 13.2 0 0 0 13.189 13.189 13.2 13.2 0 0 0 13.189-13.189A13.2 13.2 0 0 0 14.189-159zm11.573 16.045l-5.94-3.239a5.614 5.614 0 0 0-.992-2.835l6.164-1.813a11.846 11.846 0 0 1 1.128 5.031 11.9 11.9 0 0 1-.36 2.856zm-11.573 1.54a4.4 4.4 0 0 1-4.4-4.4 4.4 4.4 0 0 1 4.4-4.4 4.4 4.4 0 0 1 4.4 4.4 4.4 4.4 0 0 1-4.4 4.4zm10.2-10.559l-6.489 1.909a5.629 5.629 0 0 0-2.7-1.3l3.077-5.64a11.979 11.979 0 0 1 6.111 5.032zm-7.343-5.411l-3.24 5.94a5.617 5.617 0 0 0-2.835.992l-1.813-6.164a11.841 11.841 0 0 1 5.031-1.128 11.9 11.9 0 0 1 2.856.361zm-9.019 1.374l1.909 6.489a5.632 5.632 0 0 0-1.3 2.7l-5.64-3.077a11.979 11.979 0 0 1 5.031-6.112zm-5.411 7.343l5.94 3.239a5.614 5.614 0 0 0 .992 2.835l-6.164 1.814a11.834 11.834 0 0 1-1.128-5.031 11.871 11.871 0 0 1 .36-2.856zm1.374 9.019l6.489-1.909a5.629 5.629 0 0 0 2.7 1.3l-3.077 5.64a11.979 11.979 0 0 1-6.113-5.031zm7.343 5.411l3.24-5.94a5.618 5.618 0 0 0 2.835-.992l1.813 6.164a11.841 11.841 0 0 1-5.031 1.128 11.87 11.87 0 0 1-2.857-.36zm9.018-1.374l-1.908-6.488a5.632 5.632 0 0 0 1.3-2.7l5.64 3.077a11.98 11.98 0 0 1-5.032 6.111z" class="cls-1" transform="translate(-1 159)"/>
            <ellipse id="타원_139" cx="1.031" cy=".515" class="cls-1" rx="1.031" ry=".515" transform="translate(10.283 4.122)"/>
            <circle id="타원_140" cx="1.031" cy="1.031" r="1.031" class="cls-1" transform="translate(13.375 20.61)"/>
            <path id="패스_2702" d="M10.795-145.67a.942.942 0 0 0 0-1.333.942.942 0 0 0-1.332 0 .942.942 0 0 0 0 1.333.943.943 0 0 0 1.332 0z" class="cls-1" transform="translate(-4.045 154.64)"/>
            <path id="패스_2703" d="M32.09-131.445a.942.942 0 0 0 0 1.332.942.942 0 0 0 1.332 0 .942.942 0 0 0 0-1.332.942.942 0 0 0-1.332 0z" class="cls-1" transform="translate(-12.461 148.854)"/>
            <circle id="타원_141" cx="1.031" cy="1.031" r="1.031" class="cls-1" transform="translate(4.1 13.397)"/>
            <circle id="타원_142" cx="1.031" cy="1.031" r="1.031" class="cls-1" transform="translate(20.588 10.305)"/>
            <path id="패스_2704" d="M14.33-127.91a.942.942 0 0 0-1.332 0 .942.942 0 0 0 0 1.332.942.942 0 0 0 1.332 0 .942.942 0 0 0 0-1.332z" class="cls-1" transform="translate(-5.36 147.539)"/>
            <path id="패스_2705" d="M28.554-149.205a.942.942 0 0 0 1.333 0 .942.942 0 0 0 0-1.332.942.942 0 0 0-1.333 0 .943.943 0 0 0 0 1.332z" class="cls-1" transform="translate(-11.146 155.955)"/>
        </g>
        <g id="그룹_3379" transform="translate(296 507.98)">
            <path id="패스_2701-2" d="M14.189-159A13.2 13.2 0 0 0 1-145.811a13.2 13.2 0 0 0 13.189 13.189 13.2 13.2 0 0 0 13.189-13.189A13.2 13.2 0 0 0 14.189-159zm11.573 16.045l-5.94-3.239a5.614 5.614 0 0 0-.992-2.835l6.164-1.813a11.846 11.846 0 0 1 1.128 5.031 11.9 11.9 0 0 1-.36 2.856zm-11.573 1.54a4.4 4.4 0 0 1-4.4-4.4 4.4 4.4 0 0 1 4.4-4.4 4.4 4.4 0 0 1 4.4 4.4 4.4 4.4 0 0 1-4.4 4.4zm10.2-10.559l-6.489 1.909a5.629 5.629 0 0 0-2.7-1.3l3.077-5.64a11.979 11.979 0 0 1 6.111 5.032zm-7.343-5.411l-3.24 5.94a5.617 5.617 0 0 0-2.835.992l-1.813-6.164a11.841 11.841 0 0 1 5.031-1.128 11.9 11.9 0 0 1 2.856.361zm-9.019 1.374l1.909 6.489a5.632 5.632 0 0 0-1.3 2.7l-5.64-3.077a11.979 11.979 0 0 1 5.031-6.112zm-5.411 7.343l5.94 3.239a5.614 5.614 0 0 0 .992 2.835l-6.164 1.814a11.834 11.834 0 0 1-1.128-5.031 11.871 11.871 0 0 1 .36-2.856zm1.374 9.019l6.489-1.909a5.629 5.629 0 0 0 2.7 1.3l-3.077 5.64a11.979 11.979 0 0 1-6.113-5.031zm7.343 5.411l3.24-5.94a5.618 5.618 0 0 0 2.835-.992l1.813 6.164a11.841 11.841 0 0 1-5.031 1.128 11.87 11.87 0 0 1-2.857-.36zm9.018-1.374l-1.908-6.488a5.632 5.632 0 0 0 1.3-2.7l5.64 3.077a11.98 11.98 0 0 1-5.032 6.111z" class="cls-2" transform="translate(-1 159)"/>
            <ellipse id="타원_139-2" cx="1.031" cy=".515" class="cls-2" rx="1.031" ry=".515" transform="translate(10.283 4.122)"/>
            <circle id="타원_140-2" cx="1.031" cy="1.031" r="1.031" class="cls-2" transform="translate(13.375 20.61)"/>
            <path id="패스_2702-2" d="M10.795-145.67a.942.942 0 0 0 0-1.333.942.942 0 0 0-1.332 0 .942.942 0 0 0 0 1.333.943.943 0 0 0 1.332 0z" class="cls-2" transform="translate(-4.045 154.64)"/>
            <path id="패스_2703-2" d="M32.09-131.445a.942.942 0 0 0 0 1.332.942.942 0 0 0 1.332 0 .942.942 0 0 0 0-1.332.942.942 0 0 0-1.332 0z" class="cls-2" transform="translate(-12.461 148.854)"/>
            <circle id="타원_141-2" cx="1.031" cy="1.031" r="1.031" class="cls-2" transform="translate(4.1 13.397)"/>
            <circle id="타원_142-2" cx="1.031" cy="1.031" r="1.031" class="cls-2" transform="translate(20.588 10.305)"/>
            <path id="패스_2704-2" d="M14.33-127.91a.942.942 0 0 0-1.332 0 .942.942 0 0 0 0 1.332.942.942 0 0 0 1.332 0 .942.942 0 0 0 0-1.332z" class="cls-2" transform="translate(-5.36 147.539)"/>
            <path id="패스_2705-2" d="M28.554-149.205a.942.942 0 0 0 1.333 0 .942.942 0 0 0 0-1.332.942.942 0 0 0-1.333 0 .943.943 0 0 0 0 1.332z" class="cls-2" transform="translate(-11.146 155.955)"/>
        </g>
    </g>
</svg>
