<svg xmlns="http://www.w3.org/2000/svg" width="34.256" height="27.905" viewBox="0 0 34.256 27.905">
    <defs>
        <style>
            .cls-1{fill:#dbe3f8;stroke:#dbe3f8;stroke-width:.5px}.cls-2{fill:#5f5f5f}
        </style>
    </defs>
    <g id="그룹_3486" transform="translate(-122.994 -309.418)">
        <g id="그룹_3485" transform="translate(123.244 311.418)">
            <path id="패스_2731" d="M31.451-58.421a6.077 6.077 0 0 0 3.305-5.4.675.675 0 0 0-.675-.675 6.064 6.064 0 0 0-4.726 2.266v-1.591A14.194 14.194 0 0 0 15.178-78 14.194 14.194 0 0 0 1-63.822v4.051a2.028 2.028 0 0 0 2.025 2.025h25.02a6.083 6.083 0 0 0 6.036 5.4.675.675 0 0 0 .675-.675 6.077 6.077 0 0 0-3.305-5.4zm1.9-4.669a4.736 4.736 0 0 1-3.937 3.937 4.736 4.736 0 0 1 3.935-3.938zm-31 3.319v-4.051A12.842 12.842 0 0 1 15.178-76.65 12.842 12.842 0 0 1 28-63.822v4.722H3.025a.676.676 0 0 1-.675-.672zm27.061 2.081a4.736 4.736 0 0 1 3.937 3.937 4.736 4.736 0 0 1-3.937-3.937z" class="cls-1" transform="translate(-1 78)"/>
            <path id="패스_2732" d="M19.509-71c-2.854 0-5.176 1.934-5.176 4.311a4.065 4.065 0 0 0 1.8 3.266v1.823a1.379 1.379 0 0 0 1.35 1.4h4.051a1.379 1.379 0 0 0 1.35-1.4v-1.824a4.065 4.065 0 0 0 1.8-3.266c.001-2.376-2.321-4.31-5.175-4.31zm2.349 6.637a.676.676 0 0 0-.324.577v2.238l-1.35-.018V-62.9a.675.675 0 0 0-.675-.675.675.675 0 0 0-.675.675v1.316l-1.35-.018v-2.186a.675.675 0 0 0-.325-.577 2.776 2.776 0 0 1-1.476-2.326c0-1.632 1.716-2.96 3.826-2.96s3.826 1.328 3.826 2.96a2.775 2.775 0 0 1-1.476 2.328z" class="cls-1" transform="translate(-5.332 75.726)"/>
            <path id="패스_2733" d="M21.9-65.8a1.236 1.236 0 0 1-1.746 0 .674.674 0 0 0-.955 0 .674.674 0 0 0 0 .955 2.588 2.588 0 0 0 3.655 0 .674.674 0 0 0 0-.955.674.674 0 0 0-.954 0z" class="cls-1" transform="translate(-6.848 74.102)"/>
        </g>
        <g id="그룹_3474" transform="translate(123.244 309.418)">
            <path id="패스_2731-2" d="M31.451-58.421a6.077 6.077 0 0 0 3.305-5.4.675.675 0 0 0-.675-.675 6.064 6.064 0 0 0-4.726 2.266v-1.591A14.194 14.194 0 0 0 15.178-78 14.194 14.194 0 0 0 1-63.822v4.051a2.028 2.028 0 0 0 2.025 2.025h25.02a6.083 6.083 0 0 0 6.036 5.4.675.675 0 0 0 .675-.675 6.077 6.077 0 0 0-3.305-5.4zm1.9-4.669a4.736 4.736 0 0 1-3.937 3.937 4.736 4.736 0 0 1 3.935-3.938zm-31 3.319v-4.051A12.842 12.842 0 0 1 15.178-76.65 12.842 12.842 0 0 1 28-63.822v4.722H3.025a.676.676 0 0 1-.675-.672zm27.061 2.081a4.736 4.736 0 0 1 3.937 3.937 4.736 4.736 0 0 1-3.937-3.937z" class="cls-2" transform="translate(-1 78)"/>
            <path id="패스_2732-2" d="M19.509-71c-2.854 0-5.176 1.934-5.176 4.311a4.065 4.065 0 0 0 1.8 3.266v1.823a1.379 1.379 0 0 0 1.35 1.4h4.051a1.379 1.379 0 0 0 1.35-1.4v-1.824a4.065 4.065 0 0 0 1.8-3.266c.001-2.376-2.321-4.31-5.175-4.31zm2.349 6.637a.676.676 0 0 0-.324.577v2.238l-1.35-.018V-62.9a.675.675 0 0 0-.675-.675.675.675 0 0 0-.675.675v1.316l-1.35-.018v-2.186a.675.675 0 0 0-.325-.577 2.776 2.776 0 0 1-1.476-2.326c0-1.632 1.716-2.96 3.826-2.96s3.826 1.328 3.826 2.96a2.775 2.775 0 0 1-1.476 2.328z" class="cls-2" transform="translate(-5.332 75.726)"/>
            <path id="패스_2733-2" d="M21.9-65.8a1.236 1.236 0 0 1-1.746 0 .674.674 0 0 0-.955 0 .674.674 0 0 0 0 .955 2.588 2.588 0 0 0 3.655 0 .674.674 0 0 0 0-.955.674.674 0 0 0-.954 0z" class="cls-2" transform="translate(-6.848 74.102)"/>
        </g>
    </g>
</svg>
