<svg xmlns="http://www.w3.org/2000/svg" width="34.756" height="25.379" viewBox="0 0 34.756 25.379">
    <defs>
        <style>
            .cls-1{fill:#dbe3f8;stroke:#dbe3f8;stroke-width:.5px}.cls-2{fill:#5f5f5f;stroke:transparent}
        </style>
    </defs>
    <g id="그룹_3490" transform="translate(-291.622 -311.943)">
        <g id="그룹_3489" transform="translate(292.122 315.469)">
            <path id="패스_2786" d="M-45.45 171.321l-5.036-9.51a1.513 1.513 0 0 0-1.34-.811 1.527 1.527 0 0 0-1.519 1.53.677.677 0 0 0 .675.681.677.677 0 0 0 .67-.681.174.174 0 0 1 .317-.08l5.036 9.513a.408.408 0 0 1-.358.6h-.847a4.714 4.714 0 0 0-4.475-3.243h-3.9a4.724 4.724 0 0 0-4.675 4.109 4.255 4.255 0 0 0-2.457.009 4.725 4.725 0 0 0-4.677-4.118h-3.9a4.714 4.714 0 0 0-4.475 3.243h-.847a.408.408 0 0 1-.357-.6l5.036-9.512a.175.175 0 0 1 .317.08.677.677 0 0 0 .675.681.677.677 0 0 0 .675-.681A1.527 1.527 0 0 0-72.418 161a1.514 1.514 0 0 0-1.34.81l-5.035 9.509a1.782 1.782 0 0 0-.207.834 1.763 1.763 0 0 0 1.755 1.767h.606c0 .07-.009.14-.008.21l.041 3.765a4.759 4.759 0 0 0 4.725 4.708h2.2a6.1 6.1 0 0 0 6.029-5.361l.291-2.344a2.881 2.881 0 0 1 2.485-.016l.293 2.36a6.1 6.1 0 0 0 6.029 5.361h2.2a4.759 4.759 0 0 0 4.725-4.708l.041-3.765c0-.07-.006-.14-.008-.21H-47a1.763 1.763 0 0 0 1.755-1.767 1.78 1.78 0 0 0-.205-.832zM-65 177.074a4.744 4.744 0 0 1-4.689 4.17h-2.2a3.4 3.4 0 0 1-3.375-3.363l-.041-3.765a3.387 3.387 0 0 1 3.375-3.438h3.9a3.393 3.393 0 0 1 3.35 3.822zm16.009.807a3.4 3.4 0 0 1-3.375 3.363h-2.2a4.744 4.744 0 0 1-4.689-4.17l-.32-2.574a3.393 3.393 0 0 1 3.35-3.822h3.9a3.387 3.387 0 0 1 3.375 3.438z" class="cls-1" transform="translate(79 -161)"/>
            <path id="패스_2787" d="M-66.472 178.323a.671.671 0 0 0-.955 0l-3.376 3.4a.683.683 0 0 0 0 .962.672.672 0 0 0 .955 0l3.376-3.4a.682.682 0 0 0 0-.962z" class="cls-1" transform="translate(76.401 -166.563)"/>
            <path id="패스_2788" d="M-64.427 181.345l-3.376 3.4a.683.683 0 0 0 0 .962.672.672 0 0 0 .955 0l3.376-3.4a.682.682 0 0 0 0-.961.671.671 0 0 0-.955-.001z" class="cls-1" transform="translate(75.426 -167.545)"/>
            <path id="패스_2789" d="M-42.472 178.323a.671.671 0 0 0-.955 0l-3.376 3.4a.683.683 0 0 0 0 .962.672.672 0 0 0 .955 0l3.376-3.4a.683.683 0 0 0 0-.962z" class="cls-1" transform="translate(68.604 -166.563)"/>
            <path id="패스_2790" d="M-40.427 181.345l-3.376 3.4a.683.683 0 0 0 0 .962.672.672 0 0 0 .955 0l3.376-3.4a.683.683 0 0 0 0-.961.671.671 0 0 0-.955-.001z" class="cls-1" transform="translate(67.629 -167.545)"/>
        </g>
        <g id="그룹_3481" transform="translate(292.122 312.443)">
            <path id="패스_2786-2" d="M-45.45 171.321l-5.036-9.51a1.513 1.513 0 0 0-1.34-.811 1.527 1.527 0 0 0-1.519 1.53.677.677 0 0 0 .675.681.677.677 0 0 0 .67-.681.174.174 0 0 1 .317-.08l5.036 9.513a.408.408 0 0 1-.358.6h-.847a4.714 4.714 0 0 0-4.475-3.243h-3.9a4.724 4.724 0 0 0-4.675 4.109 4.255 4.255 0 0 0-2.457.009 4.725 4.725 0 0 0-4.677-4.118h-3.9a4.714 4.714 0 0 0-4.475 3.243h-.847a.408.408 0 0 1-.357-.6l5.036-9.512a.175.175 0 0 1 .317.08.677.677 0 0 0 .675.681.677.677 0 0 0 .675-.681A1.527 1.527 0 0 0-72.418 161a1.514 1.514 0 0 0-1.34.81l-5.035 9.509a1.782 1.782 0 0 0-.207.834 1.763 1.763 0 0 0 1.755 1.767h.606c0 .07-.009.14-.008.21l.041 3.765a4.759 4.759 0 0 0 4.725 4.708h2.2a6.1 6.1 0 0 0 6.029-5.361l.291-2.344a2.881 2.881 0 0 1 2.485-.016l.293 2.36a6.1 6.1 0 0 0 6.029 5.361h2.2a4.759 4.759 0 0 0 4.725-4.708l.041-3.765c0-.07-.006-.14-.008-.21H-47a1.763 1.763 0 0 0 1.755-1.767 1.78 1.78 0 0 0-.205-.832zM-65 177.074a4.744 4.744 0 0 1-4.689 4.17h-2.2a3.4 3.4 0 0 1-3.375-3.363l-.041-3.765a3.387 3.387 0 0 1 3.375-3.438h3.9a3.393 3.393 0 0 1 3.35 3.822zm16.009.807a3.4 3.4 0 0 1-3.375 3.363h-2.2a4.744 4.744 0 0 1-4.689-4.17l-.32-2.574a3.393 3.393 0 0 1 3.35-3.822h3.9a3.387 3.387 0 0 1 3.375 3.438z" class="cls-2" transform="translate(79 -161)"/>
            <path id="패스_2787-2" d="M-66.472 178.323a.671.671 0 0 0-.955 0l-3.376 3.4a.683.683 0 0 0 0 .962.672.672 0 0 0 .955 0l3.376-3.4a.682.682 0 0 0 0-.962z" class="cls-2" transform="translate(76.401 -166.563)"/>
            <path id="패스_2788-2" d="M-64.427 181.345l-3.376 3.4a.683.683 0 0 0 0 .962.672.672 0 0 0 .955 0l3.376-3.4a.682.682 0 0 0 0-.961.671.671 0 0 0-.955-.001z" class="cls-2" transform="translate(75.426 -167.545)"/>
            <path id="패스_2789-2" d="M-42.472 178.323a.671.671 0 0 0-.955 0l-3.376 3.4a.683.683 0 0 0 0 .962.672.672 0 0 0 .955 0l3.376-3.4a.683.683 0 0 0 0-.962z" class="cls-2" transform="translate(68.604 -166.563)"/>
            <path id="패스_2790-2" d="M-40.427 181.345l-3.376 3.4a.683.683 0 0 0 0 .962.672.672 0 0 0 .955 0l3.376-3.4a.683.683 0 0 0 0-.961.671.671 0 0 0-.955-.001z" class="cls-2" transform="translate(67.629 -167.545)"/>
        </g>
    </g>
</svg>
