<svg xmlns="http://www.w3.org/2000/svg" width="64.239" height="54.915" viewBox="0 0 64.239 54.915">
    <defs>
        <style>
            .cls-1{fill:none}
        </style>
    </defs>
    <g id="그룹_3508" transform="translate(-153.889 -258)">
        <path id="패스_4339" d="M205.122 37.747a29.34 29.34 0 0 0 6.468.863 10.362 10.362 0 0 1-3.173-1.908 38.639 38.639 0 0 1 5.32-8.65 22.781 22.781 0 0 0-8.615 9.695z" class="cls-1" transform="translate(-40.873 234.92)"/>
        <path id="패스_4340" d="M224.965 38.367a1.176 1.176 0 0 0-1.117.787 8.632 8.632 0 0 1-1.04 2.09c-5 3.173-11.884 5.342-17.72 6.291 0 0 13.249-.33 19.707-4.916v-.007h.007c.027-.027.059-.061.093-.1a15.235 15.235 0 0 0 1.109-2.432 1.129 1.129 0 0 0 .123-.512 1.182 1.182 0 0 0-1.162-1.201z" class="cls-1" transform="translate(-40.923 249.974)"/>
        <circle id="타원_151" cx="3.427" cy="3.427" r="3.427" fill="#b03531" transform="translate(177.363 274.19)"/>
        <path id="패스_4341" fill="#325ea8" d="M257.9 51.093c.462-2.705.111-2.737-.116-5.334l-15.243-1.931 22.612-8.9-19.823.177 8.445-4.985-7.179.039c-13.067-6.872-30-6.04-38.032 9.247q-.889-.321-1.749-.681a37.536 37.536 0 0 0-3.554 11.116 57.265 57.265 0 0 1 5.177-6.232 39.54 39.54 0 0 0 13.438.342 6.171 6.171 0 1 1 6.729 7.816c-.89 2.543-1.854 4.985-2.265 5.261-7.663 5.143-23.3 8.746-24.444 6.316l-.819.275c-.969 6.134 2.464 14.137 6.788 17.329h2.811c.787-.844 1.579-1.623 2.4-2.349L210 76.868q11.7-1.874 23.413-3.736l-8.386-1.332a98.543 98.543 0 0 1 24.746-5.652l6.7-.984-2.541-1.464a29.123 29.123 0 0 0 1.6-3.239l-9.632-1.252 18.29-8.094zm-40.159-9.533a29.34 29.34 0 0 1-6.468-.863A22.781 22.781 0 0 1 219.884 31a38.639 38.639 0 0 0-5.32 8.65 10.362 10.362 0 0 0 3.173 1.911zm14.38 16.51a15.235 15.235 0 0 1-1.109 2.432l-.093.1h-.007v.007c-6.458 4.587-19.707 4.916-19.707 4.916 5.836-.949 12.715-3.119 17.72-6.291a8.632 8.632 0 0 0 1.04-2.09 1.181 1.181 0 0 1 2.295.4 1.129 1.129 0 0 1-.143.527z" transform="translate(-47.021 231.97)"/>
    </g>
</svg>
