<svg xmlns="http://www.w3.org/2000/svg" width="132.741" height="97.742" viewBox="0 0 132.741 97.742">
    <defs>
        <style>
            .cls-1{fill:#325ea8}.cls-2{fill:none}
        </style>
    </defs>
    <g id="그룹_3526" transform="translate(-113.999 -245)">
        <g id="그룹_3498" transform="translate(134.134 315.721)">
            <path id="패스_4331" d="M206.771 65.031l-.249.249-3.991 4.79h-1.713L199.8 81.807h-6.927l2.365-27.021h7.726l-.981 2.163-.719 8.082z" class="cls-1" transform="translate(-192.877 -54.786)"/>
        </g>
        <g id="그룹_3499" transform="translate(113.999 316.339)">
            <path id="패스_4332" d="M197.206 55.037l-.73 8.283H192l.726-8.283h-6.092l-1.944 20.592 3.192 3.721h12.865l2.3-24.313zm-1.9 19.678h-4.474l.767-6.793h4.481z" class="cls-1" transform="translate(-184.69 -55.037)"/>
        </g>
        <g id="그룹_3500" transform="translate(168.935 315.721)">
            <path id="패스_4333" d="M217.871 54.786l-1.747 2.163-2.17 24.858h-6.927l2.373-27.021z" class="cls-1" transform="translate(-207.027 -54.786)"/>
        </g>
        <g id="그룹_3501" transform="translate(147.924 316.009)">
            <path id="패스_4334" d="M216.344 57.021l1.68-2.118h-12a6.172 6.172 0 0 0-4.193 1.579 5.514 5.514 0 0 0-1.963 3.829l-.416 4.919-.927 8.942A4.5 4.5 0 0 0 199.763 78a5.194 5.194 0 0 0 3.891 1.544h6.067a5.991 5.991 0 0 0 4.117-1.6 5.835 5.835 0 0 0 2.036-3.817l1.377-13.846a4.636 4.636 0 0 0-.834-3.158zm-5.187 4.132l-1.227 12.213a1.709 1.709 0 0 1-.573 1.136 1.838 1.838 0 0 1-1.235.408H206.2a1.66 1.66 0 0 1-1.188-.416 1.317 1.317 0 0 1-.364-1.163l1.237-12.221a1.689 1.689 0 0 1 .571-1.141 1.788 1.788 0 0 1 1.23-.423h1.928a1.594 1.594 0 0 1 1.19.435 1.326 1.326 0 0 1 .353 1.171z" class="cls-1" transform="translate(-198.484 -54.903)"/>
        </g>
        <g id="그룹_3502" transform="translate(199.409 315.721)">
            <path id="패스_4335" d="M224.551 64.991h-4.723l-.41 4.938h4.723l-1.055 11.878h6.933l2.17-24.851 1.444-2.17h-8.176z" class="cls-1" transform="translate(-219.418 -54.786)"/>
        </g>
        <g id="그룹_3503" transform="translate(183.031 316.629)">
            <path id="패스_4336" d="M230.012 55.155h-16.085l-.411 4.788h9.695L221.6 66.05h-8.44l-.4 4.461h7.663l-2.74 9.306h6.444l4.773-17.756a33.837 33.837 0 0 0 .834-3.972z" class="cls-1" transform="translate(-212.759 -55.155)"/>
        </g>
        <g id="그룹_3504" transform="translate(216.447 337.227)">
            <path id="패스_4337" d="M226.789 63.53l-.443 4.9h25.4l4.891-4.9z" class="cls-1" transform="translate(-226.346 -63.53)"/>
        </g>
        <g id="그룹_3505" transform="translate(217.852 316.339)">
            <path id="패스_4338" d="M239.581 59.753H243l.04.114 3.588 11h7.095l-4.642-14.075 1.512-1.753h-15.64l-8.035 15.828h7.034z" class="cls-1" transform="translate(-226.917 -55.037)"/>
        </g>
        <g id="그룹_3508" transform="translate(0 -13)">
            <path id="패스_4339" d="M205.122 37.747a29.34 29.34 0 0 0 6.468.863 10.362 10.362 0 0 1-3.173-1.908 38.639 38.639 0 0 1 5.32-8.65 22.781 22.781 0 0 0-8.615 9.695z" class="cls-2" transform="translate(-40.873 234.92)"/>
            <path id="패스_4340" d="M224.965 38.367a1.176 1.176 0 0 0-1.117.787 8.632 8.632 0 0 1-1.04 2.09c-5 3.173-11.884 5.342-17.72 6.291 0 0 13.249-.33 19.707-4.916v-.007h.007c.027-.027.059-.061.093-.1a15.235 15.235 0 0 0 1.109-2.432 1.129 1.129 0 0 0 .123-.512 1.182 1.182 0 0 0-1.162-1.201z" class="cls-2" transform="translate(-40.923 249.974)"/>
            <circle id="타원_151" cx="3.427" cy="3.427" r="3.427" fill="#b03531" transform="translate(177.363 274.19)"/>
            <path id="패스_4341" d="M257.9 51.093c.462-2.705.111-2.737-.116-5.334l-15.243-1.931 22.612-8.9-19.823.177 8.445-4.985-7.179.039c-13.067-6.872-30-6.04-38.032 9.247q-.889-.321-1.749-.681a37.536 37.536 0 0 0-3.554 11.116 57.265 57.265 0 0 1 5.177-6.232 39.54 39.54 0 0 0 13.438.342 6.171 6.171 0 1 1 6.729 7.816c-.89 2.543-1.854 4.985-2.265 5.261-7.663 5.143-23.3 8.746-24.444 6.316l-.819.275c-.969 6.134 2.464 14.137 6.788 17.329h2.811c.787-.844 1.579-1.623 2.4-2.349L210 76.868q11.7-1.874 23.413-3.736l-8.386-1.332a98.543 98.543 0 0 1 24.746-5.652l6.7-.984-2.541-1.464a29.123 29.123 0 0 0 1.6-3.239l-9.632-1.252 18.29-8.094zm-40.159-9.533a29.34 29.34 0 0 1-6.468-.863A22.781 22.781 0 0 1 219.884 31a38.639 38.639 0 0 0-5.32 8.65 10.362 10.362 0 0 0 3.173 1.911zm14.38 16.51a15.235 15.235 0 0 1-1.109 2.432l-.093.1h-.007v.007c-6.458 4.587-19.707 4.916-19.707 4.916 5.836-.949 12.715-3.119 17.72-6.291a8.632 8.632 0 0 0 1.04-2.09 1.181 1.181 0 0 1 2.295.4 1.129 1.129 0 0 1-.143.527z" class="cls-1" transform="translate(-47.021 231.97)"/>
        </g>
    </g>
</svg>
