<svg xmlns="http://www.w3.org/2000/svg" viewBox="0 0 184.62 34.61"><g id="Layer_2" data-name="Layer 2"><g id="Layer_1-2" data-name="Layer 1"><polygon points="85.18 14.02 84.93 14.27 80.91 19.09 79.18 19.09 78.16 30.92 71.18 30.92 73.56 3.7 81.34 3.7 80.36 5.88 79.63 14.02 85.18 14.02"/><path d="M63.5,4.32l-.74,8.34h-4.5L59,4.32H52.85l-2,20.74,3.22,3.75h13L69.38,4.32ZM61.59,24.14H57.08l.77-6.84h4.51Z"/><polygon points="117.16 3.7 115.4 5.88 113.22 30.92 106.24 30.92 108.63 3.7 117.16 3.7"/><path d="M103.06,6.12,104.75,4H92.66a6.2,6.2,0,0,0-4.23,1.59,5.54,5.54,0,0,0-2,3.86l-.42,5-.94,9a4.55,4.55,0,0,0,1.26,3.86,5.24,5.24,0,0,0,3.92,1.55h6.11a6.07,6.07,0,0,0,4.15-1.61,5.93,5.93,0,0,0,2-3.84L104,9.41a4.61,4.61,0,0,0-.84-3.18Zm-5.23,4.16L96.6,22.59A1.7,1.7,0,0,1,96,23.73a1.82,1.82,0,0,1-1.24.41H92.84a1.67,1.67,0,0,1-1.2-.42,1.29,1.29,0,0,1-.36-1.17l1.24-12.31a1.75,1.75,0,0,1,.58-1.15,1.83,1.83,0,0,1,1.24-.43h1.94a1.62,1.62,0,0,1,1.2.44A1.34,1.34,0,0,1,97.83,10.28Z"/><polygon points="142.11 13.98 137.35 13.98 136.94 18.95 141.69 18.95 140.63 30.92 147.62 30.92 149.8 5.88 151.26 3.7 143.02 3.7 142.11 13.98"/><path d="M137.82,4.61H121.61l-.41,4.83H131l-1.63,6.15h-8.5l-.4,4.49h7.72l-2.76,9.38h6.49l4.81-17.89a35,35,0,0,0,.84-4Z"/><polygon points="154.55 25.36 154.1 30.3 179.69 30.3 184.62 25.36 154.55 25.36"/><polygon points="168.27 9.07 171.72 9.07 171.76 9.19 175.37 20.27 182.52 20.27 177.84 6.09 179.37 4.32 163.61 4.32 155.51 20.27 162.6 20.27 168.27 9.07"/><circle cx="16.96" cy="12.37" r="2.16"/><path d="M35.92,15.8a8.6,8.6,0,0,0-.08-3.36l-9.6-1.22L40.49,5.61,28,5.72l5.33-3.14-4.53,0c-8.23-4.33-18.91-3.81-24,5.83-.37-.13-.74-.28-1.1-.43a23.65,23.65,0,0,0-2.24,7,36.35,36.35,0,0,1,3.26-3.93,24.9,24.9,0,0,0,8.47.21,3.89,3.89,0,1,1,4.24,4.93A14,14,0,0,1,16,19.54c-4.83,3.24-14.68,5.51-15.4,4l-.52.17c-.61,3.87,1.55,8.91,4.28,10.92H6.15c.5-.53,1-1,1.51-1.48L5.73,32l14.76-2.35-5.29-.84a61.62,61.62,0,0,1,15.6-3.56L35,24.67l-1.6-.92a20.52,20.52,0,0,0,1-2.05l-6.08-.79,11.53-5.1Zm-25.32-6a18.7,18.7,0,0,1-4.07-.54A14.21,14.21,0,0,1,12,3.14,24.19,24.19,0,0,0,8.6,8.59,6.62,6.62,0,0,0,10.6,9.79ZM19.67,20.2a10.4,10.4,0,0,1-.7,1.53l-.06.06h0q-.39.27-.81.51c-.25.14-.51.27-.78.4l-.59.26c-.32.14-.65.26-1,.37l-.37.13c-.55.18-1.11.33-1.67.47l-.78.17-.89.18c-.29.06-.59.1-.87.15l-1,.15-1.24.14-.75.07-.33,0-.57,0H7.09l-.25,0H6.47a31.56,31.56,0,0,0,11.17-4,5.48,5.48,0,0,0,.66-1.32.74.74,0,0,1,1.44.25A.72.72,0,0,1,19.67,20.2Z"/></g></g></svg>