<svg xmlns="http://www.w3.org/2000/svg" width="16.55" height="16.55" viewBox="0 0 16.55 16.55">
    <defs>
        <style>
            .cls-1{fill:#4e76e0;stroke:transparent}
        </style>
    </defs>
    <g id="그룹_3388" transform="translate(.5 .5)">
        <path id="패스_2721" d="M-150.016-77.255v-1.4a.346.346 0 0 0-.346-.346 8.649 8.649 0 0 0-8.638 8.64.346.346 0 0 0 .346.346h1.4a6.914 6.914 0 0 0 6.893 6.565 6.919 6.919 0 0 0 6.911-6.911 6.914 6.914 0 0 0-6.566-6.894zm-.691-1.047v2.769a5.191 5.191 0 0 0-4.826 4.826h-2.767a7.959 7.959 0 0 1 7.593-7.593zm.346 14.16a6.222 6.222 0 0 1-6.2-5.874h1.365a.346.346 0 0 0 .346-.346 4.5 4.5 0 0 1 4.492-4.492.346.346 0 0 0 .346-.346v-1.365a6.222 6.222 0 0 1 5.874 6.2 6.227 6.227 0 0 1-6.223 6.224z" class="cls-1" transform="translate(159 79)"/>
        <path id="패스_2722" d="M-130.312-67.333l.673-.847a.346.346 0 0 0-.056-.486.346.346 0 0 0-.486.056l-.673.847a.346.346 0 0 0 .056.486.346.346 0 0 0 .486-.056z" class="cls-1" transform="translate(140.628 72.286)"/>
        <path id="패스_2723" d="M-140.272-43.58l-.673.848a.346.346 0 0 0 .056.485.345.345 0 0 0 .486-.056l.673-.847a.346.346 0 0 0-.056-.486.346.346 0 0 0-.486.056z" class="cls-1" transform="translate(147.233 55.905)"/>
        <path id="패스_2724" d="M-129.592-44.135a.346.346 0 0 0-.3.383l.123 1.075a.346.346 0 0 0 .383.3.346.346 0 0 0 .3-.383l-.124-1.075a.346.346 0 0 0-.382-.3z" class="cls-1" transform="translate(139.954 56.184)"/>
        <path id="패스_2725" d="M-123.151-50.852a.345.345 0 0 0-.485.056.345.345 0 0 0 .056.486l.847.673a.345.345 0 0 0 .485-.056.345.345 0 0 0-.056-.486z" class="cls-1" transform="translate(135.905 60.628)"/>
        <path id="패스_2726" d="M-147.593-49.894l-1.075.123a.346.346 0 0 0-.3.383.346.346 0 0 0 .343.306h.04l1.075-.124a.346.346 0 0 0 .3-.383.344.344 0 0 0-.383-.305z" class="cls-1" transform="translate(152.439 59.953)"/>
        <path id="패스_2727" d="M-122.757-60.459l-1.075.124a.345.345 0 0 0-.3.383.346.346 0 0 0 .383.3l1.075-.123a.345.345 0 0 0 .3-.383.344.344 0 0 0-.383-.301z" class="cls-1" transform="translate(136.185 66.867)"/>
        <path id="패스_2728" d="M-139.89-63a3.114 3.114 0 0 0-3.11 3.11 3.114 3.114 0 0 0 3.11 3.11 3.114 3.114 0 0 0 3.11-3.11 3.114 3.114 0 0 0-3.11-3.11zm0 5.529a2.422 2.422 0 0 1-2.419-2.419 2.422 2.422 0 0 1 2.419-2.419 2.421 2.421 0 0 1 2.419 2.419 2.421 2.421 0 0 1-2.419 2.419z" class="cls-1" transform="translate(148.529 68.529)"/>
        <path id="패스_2729" d="M-136.618-58A1.384 1.384 0 0 0-138-56.618a1.384 1.384 0 0 0 1.382 1.382 1.384 1.384 0 0 0 1.382-1.382A1.384 1.384 0 0 0-136.618-58zm0 2.073a.692.692 0 0 1-.691-.691.692.692 0 0 1 .691-.691.692.692 0 0 1 .691.691.692.692 0 0 1-.691.691z" class="cls-1" transform="translate(145.257 65.257)"/>
    </g>
</svg>
