<svg xmlns="http://www.w3.org/2000/svg" width="26.584" height="30.891" viewBox="0 0 26.584 30.891">
    <g>
        <path fill="#dbe3f8" stroke="#dbe3f8" stroke-width="0.5px" d="M-293.376 166.168l-5.061-.92v-1.284c0-1.926-3.36-2.964-6.521-2.964s-6.521 1.039-6.521 2.964v1.284l-5.061.92a1.777 1.777 0 0 0-1.46 1.749v20.945a1.781 1.781 0 0 0 1.778 1.778h22.527a1.781 1.781 0 0 0 1.778-1.778v-20.944a1.777 1.777 0 0 0-1.459-1.75zm-7.191 13.918a.593.593 0 0 0-.241.477v8.892h-3.557v-18.982a12.7 12.7 0 0 0 3.31-.553l7.953 1.641v7.607l-6.94-2.135a.593.593 0 0 0-.741.392.593.593 0 0 0 .392.741l7.288 2.243v1.723l-6.94-2.135a.6.6 0 0 0-.525.089zm-8.781 0a.6.6 0 0 0-.526-.09l-6.94 2.135v-1.723l7.288-2.243a.594.594 0 0 0 .392-.741.594.594 0 0 0-.741-.392l-6.94 2.135v-7.607l7.953-1.641a12.693 12.693 0 0 0 3.31.553v18.982h-3.557v-8.892a.593.593 0 0 0-.239-.476zm-.945-12.565v-1.8a9.445 9.445 0 0 0 3.971 1.144l-.833.833a.592.592 0 0 0 0 .838l.684.684c-2.372-.263-3.822-1.094-3.822-1.699zm5.576 1.774l-1.181-1.181 1.191-1.191a10.53 10.53 0 0 0 5.085-1.205v1.8c-.001.71-1.978 1.726-5.095 1.777zm-4.056-4.144a12.557 12.557 0 0 1 7.631 0 12.578 12.578 0 0 1-7.631 0zm15.185 2.183a.592.592 0 0 1 .487.583v2.432l-6.219-1.283a1.963 1.963 0 0 0 .883-1.546v-1.068zm-11.37-5.149c3.257 0 5.335 1.053 5.335 1.778a.705.705 0 0 1-.249.467c-2.551-1.413-7.62-1.413-10.173 0a.707.707 0 0 1-.249-.467c.001-.724 2.079-1.777 5.336-1.777zm-11.37 5.149l4.849-.882v1.068a1.963 1.963 0 0 0 .883 1.546l-6.219 1.283v-2.432a.592.592 0 0 1 .487-.583zm-.487 21.528v-5.49l6.521-2.007v8.09h-5.928a.593.593 0 0 1-.592-.592zm23.12.593h-5.928v-8.09l6.521 2.007v5.49a.593.593 0 0 1-.592.593z" transform="translate(-295.75 -356) translate(614 196)"/>
        <path fill="#5f5f5f" d="M-293.376 166.168l-5.061-.92v-1.284c0-1.926-3.36-2.964-6.521-2.964s-6.521 1.039-6.521 2.964v1.284l-5.061.92a1.777 1.777 0 0 0-1.46 1.749v20.945a1.781 1.781 0 0 0 1.778 1.778h22.527a1.781 1.781 0 0 0 1.778-1.778v-20.944a1.777 1.777 0 0 0-1.459-1.75zm-7.191 13.918a.593.593 0 0 0-.241.477v8.892h-3.557v-18.982a12.7 12.7 0 0 0 3.31-.553l7.953 1.641v7.607l-6.94-2.135a.593.593 0 0 0-.741.392.593.593 0 0 0 .392.741l7.288 2.243v1.723l-6.94-2.135a.6.6 0 0 0-.525.089zm-8.781 0a.6.6 0 0 0-.526-.09l-6.94 2.135v-1.723l7.288-2.243a.594.594 0 0 0 .392-.741.594.594 0 0 0-.741-.392l-6.94 2.135v-7.607l7.953-1.641a12.693 12.693 0 0 0 3.31.553v18.982h-3.557v-8.892a.593.593 0 0 0-.239-.476zm-.945-12.565v-1.8a9.445 9.445 0 0 0 3.971 1.144l-.833.833a.592.592 0 0 0 0 .838l.684.684c-2.372-.263-3.822-1.094-3.822-1.699zm5.576 1.774l-1.181-1.181 1.191-1.191a10.53 10.53 0 0 0 5.085-1.205v1.8c-.001.71-1.978 1.726-5.095 1.777zm-4.056-4.144a12.557 12.557 0 0 1 7.631 0 12.578 12.578 0 0 1-7.631 0zm15.185 2.183a.592.592 0 0 1 .487.583v2.432l-6.219-1.283a1.963 1.963 0 0 0 .883-1.546v-1.068zm-11.37-5.149c3.257 0 5.335 1.053 5.335 1.778a.705.705 0 0 1-.249.467c-2.551-1.413-7.62-1.413-10.173 0a.707.707 0 0 1-.249-.467c.001-.724 2.079-1.777 5.336-1.777zm-11.37 5.149l4.849-.882v1.068a1.963 1.963 0 0 0 .883 1.546l-6.219 1.283v-2.432a.592.592 0 0 1 .487-.583zm-.487 21.528v-5.49l6.521-2.007v8.09h-5.928a.593.593 0 0 1-.592-.592zm23.12.593h-5.928v-8.09l6.521 2.007v5.49a.593.593 0 0 1-.592.593z" transform="translate(-295.75 -356) translate(614 195)"/>
    </g>
</svg>
