<svg xmlns="http://www.w3.org/2000/svg" width="31.285" height="27.478" viewBox="0 0 31.285 27.478">
    <defs>
        <style>
            .cls-1{fill:#dbe3f8;stroke:#dbe3f8;stroke-width:.5px}.cls-2{fill:#5f5f5f}
        </style>
    </defs>
    <g id="Group_3538" transform="translate(-124.711 -358)">
        <g id="Group_3535" transform="translate(125 359)">
            <path id="Path_2820" d="M-213.787 101.335a3.2 3.2 0 0 0 3.173-3.209 3.194 3.194 0 0 0-3.173-3.208 3.194 3.194 0 0 0-3.173 3.208 3.2 3.2 0 0 0 3.173 3.209zm0-5.134a1.917 1.917 0 0 1 1.9 1.925 1.916 1.916 0 0 1-1.9 1.925 1.916 1.916 0 0 1-1.9-1.925 1.917 1.917 0 0 1 1.9-1.926z" class="cls-1" transform="translate(229.14 -86.015)"/>
            <path id="Path_2821" d="M-205.878 85.953l-3.222-3.135a4.525 4.525 0 0 0-2.6-1.249l-4.438-.553a1.9 1.9 0 0 0-1.952 1.082l-.425.9a1.939 1.939 0 0 0 .378 2.183l-.546 1.16a6.889 6.889 0 0 0-1.969-.29 6.889 6.889 0 0 0-1.969.29l-.546-1.16a1.939 1.939 0 0 0 .383-2.181l-.425-.9a1.894 1.894 0 0 0-1.952-1.082l-4.438.553a4.524 4.524 0 0 0-2.6 1.249l-3.221 3.135a1.937 1.937 0 0 0-.4 2.215l.425.9a1.9 1.9 0 0 0 1.721 1.1 1.757 1.757 0 0 0 .191-.022l.871 1.848a.645.645 0 0 0-.3.855.634.634 0 0 0 .573.366.63.63 0 0 0 .273-.062l.819 1.737a.645.645 0 0 0-.3.855.632.632 0 0 0 .573.366.629.629 0 0 0 .273-.062l.878 1.864a3.219 3.219 0 0 0-.864 3.364l1.238 3.756a3.172 3.172 0 0 0 3.01 2.194h11.571a3.173 3.173 0 0 0 3.011-2.194l1.238-3.756a3.219 3.219 0 0 0-.864-3.364l.878-1.864a.629.629 0 0 0 .273.062.633.633 0 0 0 .573-.366.645.645 0 0 0-.3-.855l.819-1.737a.629.629 0 0 0 .273.062.634.634 0 0 0 .573-.366.645.645 0 0 0-.3-.855l.871-1.848a1.737 1.737 0 0 0 .191.022 1.9 1.9 0 0 0 1.721-1.1l.425-.9a1.938 1.938 0 0 0-.392-2.217zm-9.058 7.159a5.75 5.75 0 0 1-5.711 5.775 5.75 5.75 0 0 1-5.711-5.775 5.75 5.75 0 0 1 5.711-5.775 5.75 5.75 0 0 1 5.711 5.775zm-6.98 6.936a6.632 6.632 0 0 0 2.538 0v.764a1.278 1.278 0 0 1-1.269 1.283 1.278 1.278 0 0 1-1.269-1.283zm-12.327-11.528l-.425-.9a.646.646 0 0 1 .133-.738l3.221-3.135a3.263 3.263 0 0 1 1.871-.9s4.49-.558 4.516-.558a.633.633 0 0 1 .572.365l.426.9a.647.647 0 0 1-.3.855l-9.167 4.414a.633.633 0 0 1-.847-.304zm1.965 1.185l8.021-3.862.461.979a7.04 7.04 0 0 0-2.468 2.119l-5.2 2.5zm1.365 2.9l3.666-1.765a7.086 7.086 0 0 0-.379 2.275v.038l-2.471 1.19zm3.425 1.905a7.043 7.043 0 0 0 .648 1.847l-1.894.874-.814-1.729zm15.672 6.366l-1.238 3.756a1.9 1.9 0 0 1-1.806 1.317h-11.571a1.9 1.9 0 0 1-1.806-1.317l-1.239-3.756a1.928 1.928 0 0 1 1.015-2.36l2.315-1.07a7.009 7.009 0 0 0 2.962 2.237v1.132a2.555 2.555 0 0 0 2.538 2.567 2.555 2.555 0 0 0 2.538-2.567V99.68a7.009 7.009 0 0 0 2.962-2.237l2.315 1.07a1.927 1.927 0 0 1 1.014 2.359zm-.741-3.644l-1.894-.875a7.044 7.044 0 0 0 .648-1.847l2.06.992zm1.361-2.889l-2.471-1.19v-.038a7.084 7.084 0 0 0-.379-2.275l3.666 1.765zm-3.831-5.4a7.036 7.036 0 0 0-2.469-2.119l.461-.979 8.021 3.862-.818 1.737zm8.4-1.325l-.425.9a.632.632 0 0 1-.846.3l-9.167-4.414a.646.646 0 0 1-.3-.855l.425-.9a.637.637 0 0 1 .651-.361l4.438.553a3.259 3.259 0 0 1 1.87.9l3.222 3.135a.646.646 0 0 1 .134.74z" class="cls-1" transform="translate(236 -81)"/>
        </g>
        <g id="Group_3528" transform="translate(125 358)">
            <path id="Path_2820-2" d="M-213.787 101.335a3.2 3.2 0 0 0 3.173-3.209 3.194 3.194 0 0 0-3.173-3.208 3.194 3.194 0 0 0-3.173 3.208 3.2 3.2 0 0 0 3.173 3.209zm0-5.134a1.917 1.917 0 0 1 1.9 1.925 1.916 1.916 0 0 1-1.9 1.925 1.916 1.916 0 0 1-1.9-1.925 1.917 1.917 0 0 1 1.9-1.926z" class="cls-2" transform="translate(229.14 -86.015)"/>
            <path id="Path_2821-2" d="M-205.878 85.953l-3.222-3.135a4.525 4.525 0 0 0-2.6-1.249l-4.438-.553a1.9 1.9 0 0 0-1.952 1.082l-.425.9a1.939 1.939 0 0 0 .378 2.183l-.546 1.16a6.889 6.889 0 0 0-1.969-.29 6.889 6.889 0 0 0-1.969.29l-.546-1.16a1.939 1.939 0 0 0 .383-2.181l-.425-.9a1.894 1.894 0 0 0-1.952-1.082l-4.438.553a4.524 4.524 0 0 0-2.6 1.249l-3.221 3.135a1.937 1.937 0 0 0-.4 2.215l.425.9a1.9 1.9 0 0 0 1.721 1.1 1.757 1.757 0 0 0 .191-.022l.871 1.848a.645.645 0 0 0-.3.855.634.634 0 0 0 .573.366.63.63 0 0 0 .273-.062l.819 1.737a.645.645 0 0 0-.3.855.632.632 0 0 0 .573.366.629.629 0 0 0 .273-.062l.878 1.864a3.219 3.219 0 0 0-.864 3.364l1.238 3.756a3.172 3.172 0 0 0 3.01 2.194h11.571a3.173 3.173 0 0 0 3.011-2.194l1.238-3.756a3.219 3.219 0 0 0-.864-3.364l.878-1.864a.629.629 0 0 0 .273.062.633.633 0 0 0 .573-.366.645.645 0 0 0-.3-.855l.819-1.737a.629.629 0 0 0 .273.062.634.634 0 0 0 .573-.366.645.645 0 0 0-.3-.855l.871-1.848a1.737 1.737 0 0 0 .191.022 1.9 1.9 0 0 0 1.721-1.1l.425-.9a1.938 1.938 0 0 0-.392-2.217zm-9.058 7.159a5.75 5.75 0 0 1-5.711 5.775 5.75 5.75 0 0 1-5.711-5.775 5.75 5.75 0 0 1 5.711-5.775 5.75 5.75 0 0 1 5.711 5.775zm-6.98 6.936a6.632 6.632 0 0 0 2.538 0v.764a1.278 1.278 0 0 1-1.269 1.283 1.278 1.278 0 0 1-1.269-1.283zm-12.327-11.528l-.425-.9a.646.646 0 0 1 .133-.738l3.221-3.135a3.263 3.263 0 0 1 1.871-.9s4.49-.558 4.516-.558a.633.633 0 0 1 .572.365l.426.9a.647.647 0 0 1-.3.855l-9.167 4.414a.633.633 0 0 1-.847-.304zm1.965 1.185l8.021-3.862.461.979a7.04 7.04 0 0 0-2.468 2.119l-5.2 2.5zm1.365 2.9l3.666-1.765a7.086 7.086 0 0 0-.379 2.275v.038l-2.471 1.19zm3.425 1.905a7.043 7.043 0 0 0 .648 1.847l-1.894.874-.814-1.729zm15.672 6.366l-1.238 3.756a1.9 1.9 0 0 1-1.806 1.317h-11.571a1.9 1.9 0 0 1-1.806-1.317l-1.239-3.756a1.928 1.928 0 0 1 1.015-2.36l2.315-1.07a7.009 7.009 0 0 0 2.962 2.237v1.132a2.555 2.555 0 0 0 2.538 2.567 2.555 2.555 0 0 0 2.538-2.567V99.68a7.009 7.009 0 0 0 2.962-2.237l2.315 1.07a1.927 1.927 0 0 1 1.014 2.359zm-.741-3.644l-1.894-.875a7.044 7.044 0 0 0 .648-1.847l2.06.992zm1.361-2.889l-2.471-1.19v-.038a7.084 7.084 0 0 0-.379-2.275l3.666 1.765zm-3.831-5.4a7.036 7.036 0 0 0-2.469-2.119l.461-.979 8.021 3.862-.818 1.737zm8.4-1.325l-.425.9a.632.632 0 0 1-.846.3l-9.167-4.414a.646.646 0 0 1-.3-.855l.425-.9a.637.637 0 0 1 .651-.361l4.438.553a3.259 3.259 0 0 1 1.87.9l3.222 3.135a.646.646 0 0 1 .134.74z" class="cls-2" transform="translate(236 -81)"/>
        </g>
    </g>
</svg>
