<svg xmlns="http://www.w3.org/2000/svg" width="30.141" height="30.891" viewBox="0 0 30.141 30.891">
    <defs>
        <style>
            .cls-1{fill:#dbe3f8;stroke:#dbe3f8;stroke-width:.5px}.cls-2{fill:#5f5f5f}
        </style>
    </defs>
    <g id="Group_3536" transform="translate(-211.75 -356)">
        <g id="Group_3533" transform="translate(212 357)">
            <path id="Path_2735" d="M-291.138 2h-26.084A1.781 1.781 0 0 0-319 3.778v17.785a1.781 1.781 0 0 0 1.778 1.778h7.707v1.186a1.781 1.781 0 0 0 1.779 1.778h1.186v4.743a.593.593 0 0 0 .593.593h3.557a.593.593 0 0 0 .593-.593v-4.742h1.186a1.781 1.781 0 0 0 1.778-1.778v-1.186h7.707a1.781 1.781 0 0 0 1.779-1.778V3.778A1.781 1.781 0 0 0-291.138 2zm-26.677 17.192V6.15h19.563v2.371h-2.964a1.781 1.781 0 0 0-1.779 1.778v4.743a1.781 1.781 0 0 0 1.779 1.778h2.964v2.371zm16.6-3.557a.594.594 0 0 1-.593-.593V10.3a.594.594 0 0 1 .593-.593h7.114a.594.594 0 0 1 .593.593v4.743a.594.594 0 0 1-.593.593zm4.15 1.186h2.964a1.781 1.781 0 0 0 1.778-1.778V10.3a1.781 1.781 0 0 0-1.777-1.779h-2.964V6.15h6.521v13.042h-6.521zm-20.157-13.635h26.084a.594.594 0 0 1 .593.593v1.185h-27.27V3.778a.594.594 0 0 1 .593-.592zm14.228 27.27h-2.371v-4.15h2.371zm2.964-5.928a.593.593 0 0 1-.593.593h-7.114a.593.593 0 0 1-.593-.593v-1.186h8.3zm8.892-2.371h-26.084a.593.593 0 0 1-.593-.593v-1.187h27.27v1.186a.593.593 0 0 1-.593.593z" class="cls-1" transform="translate(319 -2)"/>
            <path id="Path_2736" d="M-308.665 11A5.342 5.342 0 0 0-314 16.335a5.342 5.342 0 0 0 5.335 5.335 5.342 5.342 0 0 0 5.335-5.335A5.342 5.342 0 0 0-308.665 11zm0 9.485a4.154 4.154 0 0 1-4.15-4.15 4.154 4.154 0 0 1 4.15-4.15 4.154 4.154 0 0 1 4.15 4.15 4.154 4.154 0 0 1-4.15 4.15z" class="cls-1" transform="translate(316.964 -5.665)"/>
            <path id="Path_2737" d="M-307.036 15A2.967 2.967 0 0 0-310 17.964a2.967 2.967 0 0 0 2.964 2.964 2.967 2.967 0 0 0 2.964-2.964A2.967 2.967 0 0 0-307.036 15zm0 4.743a1.781 1.781 0 0 1-1.778-1.778 1.781 1.781 0 0 1 1.778-1.778 1.781 1.781 0 0 1 1.779 1.778 1.781 1.781 0 0 1-1.779 1.778z" class="cls-1" transform="translate(315.335 -7.293)"/>
        </g>
        <g id="Group_3532" transform="translate(212 356)">
            <path id="Path_2735-2" d="M-291.138 2h-26.084A1.781 1.781 0 0 0-319 3.778v17.785a1.781 1.781 0 0 0 1.778 1.778h7.707v1.186a1.781 1.781 0 0 0 1.779 1.778h1.186v4.743a.593.593 0 0 0 .593.593h3.557a.593.593 0 0 0 .593-.593v-4.742h1.186a1.781 1.781 0 0 0 1.778-1.778v-1.186h7.707a1.781 1.781 0 0 0 1.779-1.778V3.778A1.781 1.781 0 0 0-291.138 2zm-26.677 17.192V6.15h19.563v2.371h-2.964a1.781 1.781 0 0 0-1.779 1.778v4.743a1.781 1.781 0 0 0 1.779 1.778h2.964v2.371zm16.6-3.557a.594.594 0 0 1-.593-.593V10.3a.594.594 0 0 1 .593-.593h7.114a.594.594 0 0 1 .593.593v4.743a.594.594 0 0 1-.593.593zm4.15 1.186h2.964a1.781 1.781 0 0 0 1.778-1.778V10.3a1.781 1.781 0 0 0-1.777-1.779h-2.964V6.15h6.521v13.042h-6.521zm-20.157-13.635h26.084a.594.594 0 0 1 .593.593v1.185h-27.27V3.778a.594.594 0 0 1 .593-.592zm14.228 27.27h-2.371v-4.15h2.371zm2.964-5.928a.593.593 0 0 1-.593.593h-7.114a.593.593 0 0 1-.593-.593v-1.186h8.3zm8.892-2.371h-26.084a.593.593 0 0 1-.593-.593v-1.187h27.27v1.186a.593.593 0 0 1-.593.593z" class="cls-2" transform="translate(319 -2)"/>
            <path id="Path_2736-2" d="M-308.665 11A5.342 5.342 0 0 0-314 16.335a5.342 5.342 0 0 0 5.335 5.335 5.342 5.342 0 0 0 5.335-5.335A5.342 5.342 0 0 0-308.665 11zm0 9.485a4.154 4.154 0 0 1-4.15-4.15 4.154 4.154 0 0 1 4.15-4.15 4.154 4.154 0 0 1 4.15 4.15 4.154 4.154 0 0 1-4.15 4.15z" class="cls-2" transform="translate(316.964 -5.665)"/>
            <path id="Path_2737-2" d="M-307.036 15A2.967 2.967 0 0 0-310 17.964a2.967 2.967 0 0 0 2.964 2.964 2.967 2.967 0 0 0 2.964-2.964A2.967 2.967 0 0 0-307.036 15zm0 4.743a1.781 1.781 0 0 1-1.778-1.778 1.781 1.781 0 0 1 1.778-1.778 1.781 1.781 0 0 1 1.779 1.778 1.781 1.781 0 0 1-1.779 1.778z" class="cls-2" transform="translate(315.335 -7.293)"/>
        </g>
    </g>
</svg>
