<svg xmlns="http://www.w3.org/2000/svg" width="63" height="63" viewBox="0 0 63 63">
    <defs>
        <filter id="8vn0tdac4a" width="63" height="63" x="0" y="0" filterUnits="userSpaceOnUse">
            <feOffset dy="3"/>
            <feGaussianBlur result="blur" stdDeviation="3"/>
            <feFlood flood-opacity=".11"/>
            <feComposite in2="blur" operator="in"/>
            <feComposite in="SourceGraphic"/>
        </filter>
        <filter id="9hqfecez4b" width="40.558" height="40.699" x="10.29" y="13.22" filterUnits="userSpaceOnUse">
            <feOffset dy="3"/>
            <feGaussianBlur result="blur-2" stdDeviation="3"/>
            <feFlood flood-opacity=".11"/>
            <feComposite in2="blur-2" operator="in"/>
            <feComposite in="SourceGraphic"/>
        </filter>
    </defs>
    <g transform="translate(-273 -59)">
        <g>
            <g filter="url(#8vn0tdac4a)" transform="translate(-30 57) translate(303 2)">
                <circle cx="22.5" cy="22.5" r="22.5" fill="#fff" transform="translate(9 6)"/>
            </g>
            <g filter="url(#9hqfecez4b)" transform="translate(-30 57) matrix(1.004 0 0 1.004 302.992 2.003)">
                <path fill="#9d9d9d" stroke="#9d9d9d" stroke-width="0.7px" d="M142.266 573.021a.966.966 0 0 0-1.329-.062.935.935 0 0 0-.313.678.953.953 0 0 0 .276.694l1.838 1.837 2.2 2.639a1.988 1.988 0 0 0 2.81 2.81l2.623 2.185 2.052 2.053a.945.945 0 0 0 .668.276h.082a.951.951 0 0 0 .7-.4.977.977 0 0 0-.136-1.236l-.544-.544a1.852 1.852 0 0 1 0-2.615l3.467-3.466a5.635 5.635 0 0 0 .164-7.783l.612-.613a.244.244 0 0 0-.344-.344l-.613.612a5.633 5.633 0 0 0-7.782.164l-3.467 3.467a1.85 1.85 0 0 1-2.615 0zm3.047 8.222a1.5 1.5 0 0 1-.059-2.059l.319.383a11.1 11.1 0 0 0 1.415 1.415l.38.317a1.5 1.5 0 0 1-2.055-.056zm.258-7.531l3.466-3.467a5.146 5.146 0 0 1 7.092-.164l-1.185 1.185a.244.244 0 0 0 .345.345l1.185-1.185a5.145 5.145 0 0 1-.164 7.092l-3.467 3.467a2.339 2.339 0 0 0 0 3.3l.544.544a.486.486 0 0 1 .083.61.458.458 0 0 1-.338.2.463.463 0 0 1-.363-.133l-2.068-2.067-3.4-2.834a10.685 10.685 0 0 1-1.353-1.353l-2.85-3.417-1.853-1.853a.458.458 0 0 1 .018-.664.436.436 0 0 1 .292-.108.521.521 0 0 1 .365.153l.345.345a2.34 2.34 0 0 0 3.306.003z" transform="rotate(-15 -1976.985 751.908)"/>
            </g>
        </g>
        <circle cx="1.5" cy="1.5" r="1.5" fill="#df3066" transform="translate(295 80)"/>
    </g>
</svg>
