<svg xmlns="http://www.w3.org/2000/svg" width="40.558" height="40.699" viewBox="0 0 40.558 40.699">
    <defs>
        <filter id="571a8tviua" width="40.558" height="40.699" x="0" y="0" filterUnits="userSpaceOnUse">
            <feOffset dy="3"/>
            <feGaussianBlur result="blur" stdDeviation="3"/>
            <feFlood flood-opacity=".11"/>
            <feComposite in2="blur" operator="in"/>
            <feComposite in="SourceGraphic"/>
        </filter>
    </defs>
    <g>
        <g filter="url(#571a8tviua)" transform="translate(9.429 6.429) matrix(1.004 0 0 1.004 -9.43 -6.44)">
            <path fill="none" stroke="#4e76e0" stroke-width="0.7px" d="M1.642 13.11a.966.966 0 0 1-1.329.062.935.935 0 0 1-.313-.678.953.953 0 0 1 .277-.694l1.838-1.836 2.2-2.639a1.988 1.988 0 0 1 2.81-2.81l2.624-2.186L11.8.276A.945.945 0 0 1 12.469 0h.082a.951.951 0 0 1 .7.4.977.977 0 0 1-.136 1.236l-.544.544a1.852 1.852 0 0 0 0 2.615l3.467 3.466a5.635 5.635 0 0 1 .162 7.789l.612.613a.244.244 0 0 1-.344.344l-.613-.612a5.633 5.633 0 0 1-7.782-.164L4.6 12.765a1.85 1.85 0 0 0-2.615 0zm3.047-8.222a1.5 1.5 0 0 0-.059 2.059l.319-.383a11.1 11.1 0 0 1 1.416-1.415l.38-.317a1.5 1.5 0 0 0-2.056.056zm.258 7.531l3.466 3.467a5.146 5.146 0 0 0 7.092.164l-1.185-1.185a.244.244 0 0 1 .345-.345l1.187 1.18a5.145 5.145 0 0 0-.164-7.092l-3.467-3.463a2.339 2.339 0 0 1 0-3.3l.544-.544a.486.486 0 0 0 .083-.61.458.458 0 0 0-.338-.2.463.463 0 0 0-.363.133l-2.069 2.065-3.4 2.834a10.685 10.685 0 0 0-1.353 1.353l-2.85 3.417-1.853 1.853a.458.458 0 0 0 .018.664.436.436 0 0 0 .292.108.521.521 0 0 0 .365-.153l.345-.345a2.34 2.34 0 0 1 3.306-.001z" transform="matrix(-.97 -.26 .26 -.97 26.5 28.27)"/>
        </g>
    </g>
</svg>
