<svg xmlns="http://www.w3.org/2000/svg" width="26.113" height="27.478" viewBox="0 0 26.113 27.478">
    <defs>
        <style>
            .cls-1{fill:#dbe3f8;stroke:#dbe3f8;stroke-width:.5px}.cls-2{fill:#5f5f5f}
        </style>
    </defs>
    <g id="Group_3539" transform="translate(-38.745 -358)">
        <g id="Group_3534" transform="translate(39 359)">
            <path id="Path_2760" d="M-53.434 105.987l-4.483-22.481A1.874 1.874 0 0 0-59.748 82h-12.9a1.874 1.874 0 0 0-1.832 1.506l-4.483 22.481a1.872 1.872 0 0 0 1.832 2.241h21.867a1.872 1.872 0 0 0 1.83-2.241zm-1.831.992h-21.867a.624.624 0 0 1-.61-.747l4.483-22.482a.625.625 0 0 1 .611-.5h12.9a.625.625 0 0 1 .611.5l4.483 22.481a.623.623 0 0 1-.611.748z" class="cls-1" transform="translate(79 -82)"/>
            <path id="Path_2761" d="M-58.874 85a.623.623 0 0 0-.623.624v2.5a.623.623 0 0 0 .623.624.623.623 0 0 0 .623-.624v-2.5a.623.623 0 0 0-.623-.624z" class="cls-1" transform="translate(71.676 -83.127)"/>
            <path id="Path_2762" d="M-58.874 95a.623.623 0 0 0-.623.624v2.5a.623.623 0 0 0 .623.624.623.623 0 0 0 .623-.624v-2.5a.623.623 0 0 0-.623-.624z" class="cls-1" transform="translate(71.676 -86.882)"/>
            <path id="Path_2763" d="M-58.874 105a.623.623 0 0 0-.623.624v2.5a.623.623 0 0 0 .623.624.623.623 0 0 0 .623-.624v-2.5a.623.623 0 0 0-.623-.624z" class="cls-1" transform="translate(71.676 -90.637)"/>
            <path id="Path_2764" d="M-58.874 115a.623.623 0 0 0-.623.624v2.5a.623.623 0 0 0 .623.624.623.623 0 0 0 .623-.624v-2.5a.623.623 0 0 0-.623-.624z" class="cls-1" transform="translate(71.676 -94.392)"/>
        </g>
        <g id="Group_3531" transform="translate(39 358)">
            <path id="Path_2760-2" d="M-53.434 105.987l-4.483-22.481A1.874 1.874 0 0 0-59.748 82h-12.9a1.874 1.874 0 0 0-1.832 1.506l-4.483 22.481a1.872 1.872 0 0 0 1.832 2.241h21.867a1.872 1.872 0 0 0 1.83-2.241zm-1.831.992h-21.867a.624.624 0 0 1-.61-.747l4.483-22.482a.625.625 0 0 1 .611-.5h12.9a.625.625 0 0 1 .611.5l4.483 22.481a.623.623 0 0 1-.611.748z" class="cls-2" transform="translate(79 -82)"/>
            <path id="Path_2761-2" d="M-58.874 85a.623.623 0 0 0-.623.624v2.5a.623.623 0 0 0 .623.624.623.623 0 0 0 .623-.624v-2.5a.623.623 0 0 0-.623-.624z" class="cls-2" transform="translate(71.676 -83.127)"/>
            <path id="Path_2762-2" d="M-58.874 95a.623.623 0 0 0-.623.624v2.5a.623.623 0 0 0 .623.624.623.623 0 0 0 .623-.624v-2.5a.623.623 0 0 0-.623-.624z" class="cls-2" transform="translate(71.676 -86.882)"/>
            <path id="Path_2763-2" d="M-58.874 105a.623.623 0 0 0-.623.624v2.5a.623.623 0 0 0 .623.624.623.623 0 0 0 .623-.624v-2.5a.623.623 0 0 0-.623-.624z" class="cls-2" transform="translate(71.676 -90.637)"/>
            <path id="Path_2764-2" d="M-58.874 115a.623.623 0 0 0-.623.624v2.5a.623.623 0 0 0 .623.624.623.623 0 0 0 .623-.624v-2.5a.623.623 0 0 0-.623-.624z" class="cls-2" transform="translate(71.676 -94.392)"/>
        </g>
    </g>
</svg>
