<svg xmlns="http://www.w3.org/2000/svg" width="14.513" height="17.146" viewBox="0 0 14.513 17.146">
    <path fill="#9f9f9f" d="M-145.906 89.573h-1.855a6.742 6.742 0 0 0 1.51-4.115A4.237 4.237 0 0 0-150.743 81a4.237 4.237 0 0 0-4.492 4.458 6.743 6.743 0 0 0 1.51 4.115h-1.855a2.413 2.413 0 0 0-2.419 2.4v5.144a1.034 1.034 0 0 0 1.037 1.029h12.44a1.034 1.034 0 0 0 1.037-1.029v-5.143a2.413 2.413 0 0 0-2.421-2.401zm-6.162.6l.359-1.488a6.968 6.968 0 0 0 1.93 0l.359 1.488a2.283 2.283 0 0 1-2.648.005zm3.247-.463l-.277-1.148a7.267 7.267 0 0 0 1.513-.534 5.833 5.833 0 0 1-1.235 1.687zm1.878-4.256a5.487 5.487 0 0 1-.243 1.564 6.575 6.575 0 0 1-7.117 0 5.486 5.486 0 0 1-.243-1.564 4.782 4.782 0 0 1 .069-.821 7.323 7.323 0 0 0 7.465 0 4.787 4.787 0 0 1 .07.825zm-5.447 3.108l-.277 1.148a5.834 5.834 0 0 1-1.236-1.682 7.29 7.29 0 0 0 1.514.538zm2.671-6.769a1.032 1.032 0 0 1-2.05 0 4.722 4.722 0 0 1 1.025-.112 4.722 4.722 0 0 1 1.026.119zm-2.72.211a1.729 1.729 0 0 0 3.39 0 3.282 3.282 0 0 1 1.85 1.934 6.628 6.628 0 0 1-7.09 0 3.282 3.282 0 0 1 1.851-1.93zm-4.871 15.109v-5.139a1.723 1.723 0 0 1 1.728-1.715h2.5a3.808 3.808 0 0 0 1.989 1v6.2h-1.728v-2.4a.342.342 0 0 0-.13-.268l-1.6-1.269v-.862a.344.344 0 0 0-.346-.343.344.344 0 0 0-.346.343v4.8h-1.728a.345.345 0 0 1-.338-.342zm2.764-2.716l1.037.823v2.236h-1.037zm7.6 3.059h-1.037v-2.231l1.037-.823zm2.764-.343a.344.344 0 0 1-.346.343h-1.728v-4.8a.344.344 0 0 0-.346-.343.344.344 0 0 0-.346.343v.864l-1.6 1.269a.341.341 0 0 0-.13.268v2.4h-1.722v-6.2a3.808 3.808 0 0 0 1.989-1h2.5a1.723 1.723 0 0 1 1.728 1.715z" transform="translate(158 -81)"/>
</svg>
