<svg xmlns="http://www.w3.org/2000/svg" width="18.284" height="15.519" viewBox="0 0 18.284 15.519">
    <defs>
        <style>
            .cls-1{fill:#9f9f9f;stroke:transparent}
        </style>
    </defs>
    <g id="그룹_3395" transform="translate(.5 .506)">
        <path id="패스_2739" d="M-141.79 9.543a8.673 8.673 0 0 0-7.591-7.488 8.571 8.571 0 0 0-6.743 2.145A8.651 8.651 0 0 0-159 10.639a8.56 8.56 0 0 0 1.74 5.2 1.726 1.726 0 0 0 1.374.677h11.051a1.722 1.722 0 0 0 1.371-.673 8.632 8.632 0 0 0 1.674-6.3zm-10.134 6.279l.415-1.037h2.3l.415 1.037zm7.909-.4a1.029 1.029 0 0 1-.82.4h-3.218l-.6-1.51a.346.346 0 0 0-.321-.217h-2.765a.346.346 0 0 0-.321.217l-.6 1.51h-3.218a1.03 1.03 0 0 1-.822-.4 7.872 7.872 0 0 1-1.6-4.781 7.96 7.96 0 0 1 2.647-5.921 7.887 7.887 0 0 1 6.206-1.976 7.975 7.975 0 0 1 6.981 6.885 7.947 7.947 0 0 1-1.55 5.794z" class="cls-1" transform="translate(159 -2)"/>
        <path id="패스_2740" d="M-145.125 10A5.881 5.881 0 0 0-151 15.876a5.836 5.836 0 0 0 1.72 4.153.346.346 0 0 0 .489 0l.733-.733a.345.345 0 0 0 0-.489.345.345 0 0 0-.489 0l-.481.48a5.135 5.135 0 0 1-1.266-3.067h.676a.345.345 0 0 0 .346-.346.345.345 0 0 0-.346-.346h-.673a5.153 5.153 0 0 1 1.27-3.062l.475.475a.345.345 0 0 0 .489 0 .345.345 0 0 0 0-.489l-.475-.475a5.154 5.154 0 0 1 3.062-1.27v.673a.345.345 0 0 0 .346.346.346.346 0 0 0 .346-.346v-.673a5.153 5.153 0 0 1 3.062 1.27l-.475.475a.345.345 0 0 0 0 .489.345.345 0 0 0 .489 0l.475-.475a5.151 5.151 0 0 1 1.27 3.062h-.673a.345.345 0 0 0-.346.346.345.345 0 0 0 .346.346h.676a5.133 5.133 0 0 1-1.266 3.067l-.481-.48a.345.345 0 0 0-.489 0 .345.345 0 0 0 0 .489l.733.733a.346.346 0 0 0 .489 0 5.836 5.836 0 0 0 1.721-4.153A5.881 5.881 0 0 0-145.125 10z" class="cls-1" transform="translate(153.764 -7.237)"/>
        <path id="패스_2741" d="M-135.013 19.739l-1.26 1.261a1.418 1.418 0 0 0-1.673.207 1.368 1.368 0 0 0-.21 1.676l-.279.279a.345.345 0 0 0 0 .489.345.345 0 0 0 .489 0l.279-.279a1.368 1.368 0 0 0 1.676-.21 1.368 1.368 0 0 0 .21-1.676l1.256-1.256a.346.346 0 0 0 0-.489.346.346 0 0 0-.488-.002zm-1.466 2.932a.708.708 0 0 1-.978 0 .691.691 0 0 1 0-.977.691.691 0 0 1 .978 0 .691.691 0 0 1 0 .977z" class="cls-1" transform="translate(145.607 -13.543)"/>
    </g>
</svg>
