<?xml version="1.0" standalone="yes"?>
<svg width="300" height="40" preserveAspectRatio="none">
<path style="fill:#ffffff; stroke:none;" d="M0 0L0 99C21.4024 95.7707 47.8666 97.8312 65.7863 81.4707C69.495 78.0846 69.8136 73.0386 72.8179 69.2747C78.5384 62.1078 88.6677 60.8915 86.6667 49C84.8449 38.1738 72.2301 32.7616 63.0401 38.483C58.3195 41.422 56.9518 47.2802 50.9954 47.956C42.6532 48.9026 27.1012 44.6977 20.0394 48.0671C14.1545 50.875 10.8056 58.735 6 63L15 33L21 34C29.739 17.6482 46.8529 2.67166 66 1L45 0L0 0z"/>
<path style="fill:#000000; stroke:none;" d="M21 34L15 33L6 63C12.0562 59.4417 14.9838 49.6696 22.0039 47.8889C32.2334 45.2941 44.3214 52.0699 54.7369 47.3966C61.097 44.543 62.3957 36.3449 71 36.1983C80.0462 36.0442 88.8914 46.0403 86.1921 55C83.9531 62.432 77.3016 63.4092 72.8179 68.4985C69.6659 72.0761 69.3287 77.2098 65.7863 80.6713C55.1423 91.0719 34.2192 95.8497 20 98.385C16.0476 99.0898 2.22966 97.0709 0.603395 100.322C-4.81898 111.161 6.14706 132.318 13.1844 139.981C19.8594 147.249 28.8101 145.953 33 137L28 133C45.8283 132.852 69.006 129.374 86 124L86 123L68 120C93.4226 108.731 121.101 110.87 147 103L147 102L141 99L145 90L122 87L122 86L154 72.5756L167 65L151 65L149.972 52.5995L140 49.9498L112 47L112 46C131.355 43.101 151.745 31.0803 170 24L170 23L121 23L121 22C127.08 19.7742 136.449 15.5312 140 10C122.545 10 109.845 3.59148 93 0.614975C71.8861 -3.11577 48.5176 1.72305 33.0039 17.0147C28.0075 21.9395 23.435 27.3592 21 34z"/>
<path style="fill:#ffffff; stroke:none;" d="M92 0L92 1L119 9.36266L140 10L121 22L121 23L170 23L170 24L112 46L112 47L139 49.9498L149.397 52.5995L151 65L167 65C157.048 74.9718 135.149 80.8985 122 86L122 87L145 90L141 99L147 102L147 103C122.14 108.987 90.3644 105.927 68 120L86 123L86 124C68.0023 128.434 46.5283 132.618 28 133L33 137L27 145L770 145L770 107L748 126.397L716 127L642 127L644 105L770 105L770 0L92 0z"/>
<path style="fill:#000000; stroke:none;" d="M297 129L327 129L331 80C342.176 79.9605 351.15 67.3989 356 58L333 58L340 15C332.804 15 313.28 11.5322 307.603 16.0278C305.404 17.7699 306.083 21.5536 305.91 24C305.392 31.3472 304.319 38.6371 303.961 46C302.617 73.6482 297.003 101.299 297 129M443 129L473 129L478.83 63L482.225 27L489 15L464 15C461.135 15 456.14 14.0877 453.742 16.0278C449.253 19.6604 450.199 40.2255 449.989 46C448.982 73.671 443.018 101.295 443 129M596 15L592 58L572 58L571 80L590 80L586 129L616 129L625.418 27L631 15L596 15M357 59C360.23 59 357.045 70.78 357 74C356.824 86.6769 349.399 105.85 361 115.667C368.336 121.874 379.061 121 388 121C397.354 121 408.87 122.312 417 116.667C429.751 107.812 428.678 94.5996 430 81C431.322 67.4071 434 53.7102 434 40C434 35.5809 431.308 29.1432 431.833 25.3333C432.262 22.2269 436.789 19.0666 438 16C417.497 16 376.874 7.91521 363.97 28.0008C358.092 37.1497 360.806 49.0659 357 59z"/>
<path style="fill:#ffffff; stroke:none;" d="M45 17L29 38L40 40L40 39C32.1843 31.4983 45.682 24.9278 45 17z"/>
<path style="fill:#000000; stroke:none;" d="M220 18C219.813 40.6138 215.565 63.4406 213.911 86C212.92 99.5206 211.124 112.498 226.001 119.972C230.646 122.306 237.931 121 243 121L281 121L290 18L265.742 19.0278L263.83 28L262 52L244 52L247 18L220 18M648 85C654.877 85 673.953 88.312 679.034 83.3966C686.529 76.1452 691.564 60.3657 696.247 51C698.058 47.377 699.835 41.2961 703.39 39.0278C706.635 36.9583 712.308 38 716 38C717.677 49.3537 722.701 61.1021 726.333 72C727.484 75.4536 728.351 81.7539 731.51 83.9722C737.528 88.1978 754.719 85 762 85L748.667 44L743.363 26.2855L748 18L702 18L682.39 18.6034L672.753 35L648 85M507 19L505 40L545 40C544.266 45.4485 542.564 59.8284 537.697 62.9722C529.983 67.9544 509.947 58.3211 504.179 65.6034C501.355 69.1686 502.037 79.5177 502 84L534 84L523 123L551 123C558.075 88.8149 574.996 54.2528 575 19L507 19z"/>
<path style="fill:#ffffff; stroke:none;" d="M390.144 38.0278C385.114 40.9647 386.075 49.0609 385.424 54C383.974 65.0109 378.502 85.3324 381.912 95.8912C383.671 101.339 394.771 101.177 398.867 98.821C403.804 95.9802 403.336 87.954 403.831 83C405.04 70.9062 409.857 53.9084 407.593 42.0193C406.409 35.8049 394.626 35.4109 390.144 38.0278z"/>
<path style="fill:#000000; stroke:none;" d="M68.0046 42.7431C56.5404 47.1447 63.3389 64.8193 74.9815 60.2569C86.0705 55.9115 79.3152 38.4004 68.0046 42.7431z"/>
<path style="fill:#ffffff; stroke:none;" d="M242 73L239 100L257 100L260 73L242 73M41 101L41 102C52.4966 101.506 85.1223 96.8768 81 80C76.9497 82.1036 75.5157 86.2232 71.8951 88.8951C63.6679 94.9662 51.0624 99.514 41 101M37 102L38 103L37 102z"/>
<path style="fill:#000000; stroke:none;" d="M644 105L642 127L716 127C725.567 127 740.003 129.714 749 126.397C756.309 123.702 766.776 111.914 770 105L644 105z"/>
<path style="fill:#ffffff; stroke:none;" d="M0 111L0 145L18 145L0 111z"/>
</svg>
