<svg xmlns="http://www.w3.org/2000/svg" width="18.277" height="12.749" viewBox="0 0 18.277 12.749">
    <defs>
        <style>
            .cls-1{fill:#9f9f9f;stroke:transparent}
        </style>
    </defs>
    <g id="그룹_3417" transform="translate(.5 .5)">
        <path id="패스_2792" d="M17.241 161H2.037A1.038 1.038 0 0 0 1 162.037v9.675a1.038 1.038 0 0 0 1.037 1.037h15.2a1.038 1.038 0 0 0 1.037-1.037v-9.675A1.038 1.038 0 0 0 17.241 161zm-15.55 10.712v-9.675a.346.346 0 0 1 .346-.346h7.256v10.366H2.037a.346.346 0 0 1-.346-.345zm15.9 0a.346.346 0 0 1-.346.346H9.984v-10.367h7.257a.346.346 0 0 1 .346.346z" class="cls-1" transform="translate(-1 -161)"/>
        <path id="패스_2793" d="M9.906 172.014a1.728 1.728 0 1 0-2.284 0A2.766 2.766 0 0 0 6 174.529v.346a.345.345 0 0 0 .346.346h4.838a.345.345 0 0 0 .346-.346v-.346a2.766 2.766 0 0 0-1.624-2.515zm-2.178-1.286a1.037 1.037 0 1 1 1.037 1.037 1.038 1.038 0 0 1-1.037-1.037zm-1.037 3.8a2.073 2.073 0 1 1 4.147 0z" class="cls-1" transform="translate(-4.272 -166.236)"/>
        <path id="패스_2794" d="M33.346 169.691h2.764a.346.346 0 0 0 0-.691h-2.764a.346.346 0 0 0 0 .691z" class="cls-1" transform="translate(-21.942 -166.236)"/>
        <path id="패스_2795" d="M35.183 177h-4.837a.346.346 0 1 0 0 .691h4.838a.346.346 0 1 0 0-.691z" class="cls-1" transform="translate(-19.979 -171.471)"/>
        <path id="패스_2796" d="M36.11 185h-2.764a.346.346 0 1 0 0 .691h2.764a.346.346 0 1 0 0-.691z" class="cls-1" transform="translate(-21.942 -176.707)"/>
    </g>
</svg>
